<svg width="140" height="33" viewBox="0 0 140 33" fill="none" xmlns="http://www.w3.org/2000/svg">
<path d="M29.3239 0.652344C29.4257 0.652344 29.4765 0.701876 29.4765 0.800942C29.4765 1.74206 29.8329 2.63365 30.4438 3.3271C31.2075 4.21869 32.3275 4.71402 33.4984 4.71402C33.6511 4.66448 33.702 4.96168 33.5493 4.96168C32.7347 4.96168 31.9711 5.20934 31.3093 5.6056C30.2402 6.29906 29.5275 7.53737 29.4765 8.77569C29.4765 8.87475 29.4766 8.97382 29.3747 8.97382C29.2729 9.02335 29.222 8.92429 29.222 8.82522C29.222 7.93364 28.8657 7.04205 28.3057 6.29906C27.542 5.40747 26.422 4.86261 25.2511 4.86261C25.2002 4.86261 25.0983 4.86261 25.0983 4.81308C25.0474 4.71402 25.0983 4.61495 25.2001 4.61495C26.1165 4.61495 26.982 4.31776 27.6947 3.7729C28.662 3.02991 29.222 1.89066 29.222 0.701876C29.222 0.751409 29.2729 0.652344 29.3239 0.652344ZM8.34915 3.57477C9.31643 3.57477 10.2837 3.57477 11.251 3.57477C14.051 10.6579 16.8511 17.7411 19.6511 24.8243C18.7347 24.8243 17.8183 24.8243 16.902 24.8243C16.2401 23.1401 15.5783 21.4065 14.8656 19.7224C11.5056 19.7224 8.09462 19.7224 4.7346 19.7224C4.07277 21.4065 3.41094 23.1401 2.74912 24.8243C1.83275 24.8243 0.916369 24.8243 0 24.8243C2.80002 17.7411 5.54913 10.6579 8.34915 3.57477ZM5.85458 16.899C8.50187 16.899 11.1492 16.899 13.7455 16.899C12.4219 13.5308 11.0983 10.2121 9.77464 6.84392C8.5019 10.2121 7.17822 13.5804 5.85458 16.899ZM21.2292 3.57477C22.1456 3.57477 23.1129 3.57477 24.0293 3.57477C24.0293 10.6579 24.0293 17.7411 24.0293 24.8243C23.1129 24.8243 22.1456 24.8243 21.2292 24.8243C21.2292 17.7411 21.2292 10.6579 21.2292 3.57477ZM27.9493 9.66728C28.8656 9.66728 29.8329 9.66728 30.7493 9.66728C30.7493 14.7196 30.7493 19.7719 30.7493 24.8243C29.8329 24.8243 28.8656 24.8243 27.9493 24.8243C27.9493 19.7719 27.9493 14.7196 27.9493 9.66728Z" fill="white"/>
<path d="M34.7189 3.57495C39.0462 3.57495 43.3226 3.57495 47.6498 3.57495C47.6498 4.51607 47.6498 5.40766 47.6498 6.34878C44.2898 6.34878 40.9298 6.34878 37.5698 6.34878C37.5698 8.47868 37.5698 10.6581 37.5698 12.788C40.5734 12.788 43.5262 12.788 46.5298 12.788C46.5298 13.6796 46.5298 14.5712 46.5298 15.4132C43.5262 15.4132 40.5734 15.4132 37.5698 15.4132C37.5698 17.5927 37.5698 19.8216 37.5698 22.0011C41.1843 22.0011 44.7989 22.0011 48.4135 22.0011C48.4135 22.9422 48.4135 23.8338 48.4135 24.7749C43.8316 24.7749 39.2498 24.7749 34.668 24.7749C34.7189 17.7413 34.7189 10.6581 34.7189 3.57495ZM136.181 7.63663C136.69 7.63663 137.199 7.63663 137.708 7.63663C137.708 7.73569 137.708 7.83475 137.708 7.93382C137.505 7.93382 137.301 7.93382 137.148 7.93382C137.148 8.47868 137.148 9.02354 137.148 9.61793C137.047 9.61793 136.945 9.61793 136.792 9.61793C136.792 9.07307 136.792 8.52821 136.792 7.93382C136.588 7.93382 136.385 7.93382 136.181 7.93382C136.181 7.83475 136.181 7.73569 136.181 7.63663ZM137.963 7.63663C138.116 7.63663 138.268 7.63663 138.421 7.63663C138.625 8.13195 138.777 8.67681 138.981 9.17214C139.185 8.67681 139.338 8.13195 139.541 7.63663C139.694 7.63663 139.847 7.63663 139.999 7.63663C139.999 8.28055 139.999 8.92447 139.999 9.5684C139.897 9.5684 139.796 9.5684 139.694 9.5684C139.694 9.02354 139.694 8.47868 139.694 7.93382C139.49 8.47868 139.287 9.02354 139.083 9.5684C138.981 9.5684 138.879 9.5684 138.778 9.5684C138.574 9.02354 138.421 8.52821 138.217 7.98335C138.217 8.52821 138.217 9.02354 138.217 9.5684C138.116 9.5684 138.014 9.5684 137.912 9.5684C137.963 8.92447 137.963 8.28055 137.963 7.63663ZM92.3482 9.1226C92.6536 9.07307 93.01 9.07307 93.3155 9.07307C93.3155 9.96466 93.3155 10.9058 93.3155 11.7974C91.9409 11.7974 90.5663 12.3422 89.5991 13.2338C88.6827 14.0759 88.0209 15.2646 87.8682 16.503C87.8173 16.9488 87.8172 17.3945 87.8172 17.8403C87.8172 20.1684 87.8172 22.4964 87.8172 24.8244C86.9009 24.8244 85.9336 24.8244 85.0172 24.8244C85.0172 19.7226 85.0172 14.6207 85.0172 9.51886C85.9336 9.51886 86.9009 9.51886 87.8172 9.51886C87.8172 10.0637 87.8172 10.559 87.8172 11.1039C89.09 10.0142 90.6682 9.32073 92.3482 9.1226ZM72.9517 9.32073C74.6318 8.97401 76.4645 9.1226 78.0427 9.81606C79.519 10.46 80.8427 11.5002 81.7081 12.8375C82.6754 14.3235 83.1336 16.1067 82.9809 17.8403C82.879 19.3759 82.2682 20.8618 81.3009 22.1001C80.3336 23.2889 79.0609 24.2796 77.5845 24.7749C76.6172 25.1216 75.599 25.3198 74.5808 25.2702C72.5444 25.1216 70.559 24.23 69.1844 22.7936C69.1844 26.1123 69.1844 29.4805 69.1844 32.7992C68.2681 32.7992 67.3008 32.7992 66.3844 32.7992C66.3844 27.9945 66.3844 23.1899 66.3844 18.4347C66.3844 17.5431 66.3335 16.6516 66.5372 15.8095C66.8426 14.1749 67.6572 12.689 68.8281 11.5497C69.9481 10.4105 71.3736 9.61793 72.9517 9.32073ZM74.1736 11.7478C73.3081 11.8469 72.4935 12.0946 71.7808 12.5899C70.559 13.3329 69.6936 14.5712 69.3881 15.9581C69.2863 16.503 69.2863 17.0478 69.2863 17.5927C69.2863 18.2366 69.439 18.8805 69.6935 19.4254C70.2535 20.7628 71.3735 21.8525 72.7481 22.3478C74.2754 22.9422 76.1081 22.7936 77.5336 21.9515C78.8572 21.2086 79.7736 19.8712 80.079 18.3852C80.1809 17.8403 80.1808 17.2955 80.1808 16.7506C80.1299 15.5123 79.6209 14.3235 78.7554 13.4319C77.5845 12.1936 75.8536 11.5497 74.1736 11.7478ZM96.6246 11.1534C98.5082 9.46933 101.308 8.77588 103.803 9.32073C105.126 9.61793 106.399 10.3114 107.366 11.2525C108.588 12.4413 109.301 14.0263 109.454 15.6609C109.505 16.2058 109.454 16.7506 109.454 17.2955C109.454 17.6917 109.454 18.088 109.454 18.4843C105.228 18.4843 100.952 18.4843 96.7264 18.4843C97.0318 19.7226 97.7955 20.8123 98.8646 21.6048C100.086 22.4964 101.665 22.8927 103.141 22.645C104.414 22.4469 105.585 21.7534 106.45 20.8123C107.163 21.3572 107.825 21.902 108.537 22.4469C107.214 23.9824 105.279 24.973 103.243 25.2207C101.766 25.4188 100.239 25.1712 98.8646 24.5768C97.7446 24.0814 96.7773 23.388 96.0137 22.4964C95.0973 21.4562 94.4355 20.2179 94.13 18.8805C93.7736 17.345 93.9264 15.76 94.4864 14.3235C94.8428 13.0852 95.6064 11.9955 96.6246 11.1534ZM98.9155 12.689C97.7955 13.4319 96.9809 14.6207 96.6755 15.9086C99.9846 15.9086 103.345 15.9086 106.654 15.9086C106.552 15.0665 106.246 14.2245 105.737 13.531C105.025 12.5899 103.905 11.946 102.734 11.7974C101.41 11.6488 99.9846 11.9955 98.9155 12.689ZM115.512 9.2712C116.479 9.1226 117.447 9.07307 118.414 9.2712C120.043 9.61793 121.468 10.559 122.436 11.8469C121.723 12.2927 121.061 12.788 120.348 13.2338C119.89 12.5899 119.228 12.0946 118.516 11.7974C117.548 11.4011 116.377 11.4011 115.41 11.6983C114.85 11.8964 114.341 12.1936 114.036 12.689C113.781 13.0357 113.679 13.531 113.832 13.9273C113.934 14.3731 114.341 14.6703 114.748 14.8684C115.563 15.3142 116.428 15.5123 117.345 15.7104C118.108 15.859 118.923 16.0076 119.636 16.2553C120.348 16.4534 121.01 16.8002 121.57 17.246C122.283 17.8403 122.792 18.6329 122.894 19.574C122.996 20.4656 122.945 21.4067 122.639 22.2487C122.334 22.9917 121.825 23.5861 121.163 24.0319C120.501 24.4777 119.737 24.8244 118.974 24.973C118.159 25.1712 117.345 25.2702 116.53 25.2207C114.901 25.1712 113.272 24.6263 111.948 23.6852C111.439 23.3385 110.981 22.9422 110.574 22.4469C111.286 21.902 111.999 21.3572 112.712 20.8123C113.679 22.1497 115.41 22.9422 117.09 22.7936C117.803 22.7441 118.567 22.5955 119.177 22.1992C119.585 21.9515 119.89 21.6048 120.094 21.159C120.246 20.6637 120.246 20.1684 120.043 19.673C119.737 19.0787 119.127 18.6824 118.465 18.4347C117.599 18.1375 116.683 17.9889 115.817 17.7908C114.952 17.5927 114.086 17.345 113.323 16.9488C112.356 16.4534 111.541 15.6114 111.337 14.5712C111.134 13.5805 111.185 12.5404 111.694 11.6488C112.05 11.0544 112.508 10.5095 113.119 10.1628C113.73 9.76653 114.596 9.4198 115.512 9.2712ZM127.374 9.76653C128.29 9.37027 129.308 9.1226 130.276 9.1226C131.803 9.07307 133.33 9.51886 134.552 10.4105C135.112 10.8067 135.57 11.302 135.977 11.8469C135.265 12.2927 134.552 12.7385 133.89 13.2338C133.483 12.6394 132.923 12.1936 132.261 11.8964C131.243 11.4011 130.072 11.4011 129.003 11.6983C128.494 11.8469 127.985 12.1441 127.628 12.5899C127.323 12.9861 127.17 13.531 127.323 13.9768C127.425 14.3235 127.73 14.5712 128.036 14.8189C128.697 15.2151 129.41 15.4132 130.123 15.6114C130.683 15.76 131.294 15.8095 131.854 15.9581C132.668 16.1562 133.534 16.3544 134.247 16.8002C134.908 17.1469 135.519 17.6917 135.876 18.3852C136.283 19.1282 136.385 20.0198 136.334 20.8123C136.283 21.5553 136.079 22.2487 135.672 22.8927C135.265 23.4871 134.756 23.9824 134.145 24.3291C133.33 24.8244 132.363 25.0721 131.447 25.1712C130.632 25.2702 129.817 25.3198 129.003 25.1712C127.068 24.9235 125.236 23.9329 123.963 22.4964C124.574 22.0011 125.236 21.5058 125.897 21.0104C125.948 20.9609 126.05 20.9114 126.101 20.8618C127.068 22.1992 128.799 22.9917 130.479 22.8431C131.243 22.7936 132.007 22.5955 132.617 22.1497C133.025 21.8525 133.381 21.4067 133.483 20.9114C133.585 20.4656 133.534 19.9702 133.33 19.574C132.974 18.9796 132.363 18.6329 131.701 18.4347C130.785 18.1375 129.868 17.9889 128.952 17.7908C128.087 17.5927 127.221 17.345 126.508 16.8992C125.796 16.503 125.236 15.9086 124.93 15.2151C124.625 14.5217 124.625 13.7787 124.676 13.0852C124.777 12.3422 125.083 11.5992 125.592 11.0544C126.101 10.5095 126.712 10.0637 127.374 9.76653ZM49.6862 9.5684C50.8062 9.5684 51.9262 9.5684 52.9953 9.5684C54.4717 11.4506 55.948 13.2833 57.4244 15.1656C58.9008 13.2833 60.3771 11.4506 61.8535 9.5684C62.9735 9.5684 64.0935 9.5684 65.1626 9.5684C63.1771 12.0946 61.1408 14.6703 59.1044 17.1964C61.1408 19.7226 63.1262 22.2983 65.1626 24.8244C64.0426 24.8244 62.9735 24.8244 61.8535 24.8244C60.3771 22.9917 58.9008 21.1095 57.4244 19.2273C55.948 21.1095 54.4717 22.9422 52.9953 24.8244C51.8753 24.8244 50.7553 24.8244 49.6862 24.8244C51.7226 22.2983 53.708 19.7226 55.7444 17.1964C53.708 14.6207 51.7226 12.0946 49.6862 9.5684Z" fill="white"/>
</svg>
