<svg width="10" height="10" viewBox="0 0 10 10" fill="none" xmlns="http://www.w3.org/2000/svg">
<path fill-rule="evenodd" clip-rule="evenodd" d="M9.32324 9.60513C9.59668 9.33169 9.59668 8.88833 9.32324 8.61489L6.05664 5.34878L9.32324 2.08218C9.59668 1.80874 9.59668 1.36587 9.32324 1.09243C9.0498 0.818993 8.60645 0.818993 8.33301 1.09243L5.06641 4.35854L1.80078 1.09243C1.66602 0.957176 1.48926 0.888817 1.3125 0.887352C1.13086 0.885887 0.949219 0.954247 0.810547 1.09243C0.537109 1.36587 0.537109 1.80923 0.810547 2.08266L4.07617 5.34878L0.810547 8.61489C0.537109 8.88833 0.537109 9.3312 0.810547 9.60464C0.992188 9.78628 1.24902 9.84731 1.48145 9.78774C1.59863 9.75747 1.70898 9.69643 1.80078 9.60464L5.06641 6.33901L8.33301 9.60513C8.60645 9.87856 9.0498 9.87856 9.32324 9.60513Z" fill="#56AEDB"/>
</svg>
