<svg width="94" height="36" viewBox="0 0 94 36" fill="none" xmlns="http://www.w3.org/2000/svg">
<path d="M90.024 30C91.6451 30 93.05 31.2857 93.05 33C93.05 34.6071 91.7531 36 90.024 36C88.403 36 86.998 34.7143 86.998 33C87.1061 31.2857 88.403 30 90.024 30Z" fill="white"/>
<path d="M90.024 15C91.6451 15 93.05 16.2857 93.05 18C93.05 19.6071 91.7531 21 90.024 21C88.403 21 86.998 19.7143 86.998 18C87.1061 16.2857 88.403 15 90.024 15Z" fill="white"/>
<path d="M68.3014 30C69.9225 30 71.3274 31.2857 71.3274 33C71.3274 34.6071 70.0305 36 68.3014 36C66.6803 36 65.2754 34.7143 65.2754 33C65.3835 31.2857 66.6803 30 68.3014 30Z" fill="white"/>
<path d="M68.3014 15C69.9225 15 71.3274 16.2857 71.3274 18C71.3274 19.6071 70.0305 21 68.3014 21C66.6803 21 65.2754 19.7143 65.2754 18C65.3835 16.2857 66.6803 15 68.3014 15Z" fill="white"/>
<path d="M3.026 15C4.64707 15 6.05199 16.2857 6.05199 18C6.05199 19.6071 4.75514 21 3.026 21C1.40493 21 0 19.7143 0 18C0.108071 16.2857 1.40493 15 3.026 15Z" fill="white"/>
<path d="M3.026 0C4.64707 0 6.05199 1.28571 6.05199 3C6.05199 4.60714 4.75514 6 3.026 6C1.40493 6 0 4.71429 0 3C0.108071 1.28571 1.40493 0 3.026 0Z" fill="white"/>
<path d="M46.5787 30C48.1998 30 49.6047 31.2857 49.6047 33C49.6047 34.6071 48.3079 36 46.5787 36C44.8496 36 43.5527 34.7143 43.5527 33C43.5527 31.2857 44.9577 30 46.5787 30Z" fill="white"/>
<path d="M24.8561 30C26.4771 30 27.8821 31.2857 27.8821 33C27.8821 34.6071 26.5852 36 24.8561 36C23.235 36 21.8301 34.7143 21.8301 33C21.8301 31.2857 23.1269 30 24.8561 30Z" fill="white"/>
<path d="M3.02599 30C4.64706 30 6.05198 31.2857 6.05198 33C6.05198 34.6071 4.75513 36 3.02599 36C1.40493 36 0 34.7143 0 33C0.108071 31.2857 1.40493 30 3.02599 30Z" fill="white"/>
</svg>
