<svg width="45" height="482" viewBox="0 0 45 482" fill="none" xmlns="http://www.w3.org/2000/svg">
<path d="M6 154.519C6 156.14 4.71429 157.545 3 157.545C1.39286 157.545 -2.14919e-07 156.248 -1.36767e-07 154.519C-6.34985e-08 152.898 1.28571 151.493 3 151.493C4.60714 151.601 6 152.898 6 154.519Z" fill="#316594" fill-opacity="0.5"/>
<path d="M6 132.797C6 134.419 4.71429 135.823 3 135.823C1.39286 135.823 -2.14932e-07 134.527 -1.36775e-07 132.797C-6.35028e-08 131.176 1.28571 129.771 3 129.771C4.60714 129.88 6 131.176 6 132.797Z" fill="#316594" fill-opacity="0.5"/>
<path d="M6 111.075C6 112.696 4.71429 114.101 3 114.101C1.39286 114.101 -2.14945e-07 112.804 -1.36783e-07 111.075C-5.86213e-08 109.346 1.28571 108.049 3 108.049C4.60714 108.049 6 109.454 6 111.075Z" fill="#316594" fill-opacity="0.5"/>
<path d="M6 89.3522C6 90.9732 4.71429 92.3782 3 92.3782C1.39286 92.3782 -2.1495e-07 91.0813 -1.36786e-07 89.3522C-6.35077e-08 87.7311 1.28571 86.3262 3 86.3262C4.60714 86.3262 6 87.623 6 89.3522Z" fill="#316594" fill-opacity="0.5"/>
<path d="M6 67.5221C6 69.1432 4.71429 70.5481 3 70.5481C1.39286 70.5481 -2.14948e-07 69.2512 -1.36785e-07 67.5221C-6.35074e-08 65.901 1.28571 64.4961 3 64.4961C4.60714 64.6042 6 65.901 6 67.5221Z" fill="#316594" fill-opacity="0.5"/>
<path d="M25.5 154.519C25.5 156.14 24.2143 157.545 22.5 157.545C20.8929 157.545 19.5 156.248 19.5 154.519C19.5 152.898 20.7857 151.493 22.5 151.493C24.1071 151.601 25.5 152.898 25.5 154.519Z" fill="#316594" fill-opacity="0.5"/>
<path d="M25.5 132.797C25.5 134.419 24.2143 135.823 22.5 135.823C20.8929 135.823 19.5 134.527 19.5 132.797C19.5 131.176 20.7857 129.771 22.5 129.771C24.1071 129.88 25.5 131.176 25.5 132.797Z" fill="#316594" fill-opacity="0.5"/>
<path d="M25.5 111.075C25.5 112.696 24.2143 114.101 22.5 114.101C20.8929 114.101 19.5 112.804 19.5 111.075C19.5 109.346 20.7857 108.049 22.5 108.049C24.1071 108.049 25.5 109.454 25.5 111.075Z" fill="#316594" fill-opacity="0.5"/>
<path d="M25.5 89.3522C25.5 90.9732 24.2143 92.3782 22.5 92.3782C20.8929 92.3782 19.5 91.0813 19.5 89.3522C19.5 87.7311 20.7857 86.3262 22.5 86.3262C24.1071 86.3262 25.5 87.623 25.5 89.3522Z" fill="#F4BA91"/>
<path d="M25.5 67.5221C25.5 69.1432 24.2143 70.5481 22.5 70.5481C20.8929 70.5481 19.5 69.2512 19.5 67.5221C19.5 65.901 20.7857 64.4961 22.5 64.4961C24.1071 64.6042 25.5 65.901 25.5 67.5221Z" fill="#F4BA91"/>
<path d="M45 154.519C45 156.14 43.7143 157.545 42 157.545C40.3929 157.545 39 156.248 39 154.519C39 152.898 40.2857 151.493 42 151.493C43.7143 151.601 45 152.898 45 154.519Z" fill="#316594" fill-opacity="0.5"/>
<path d="M45 132.797C45 134.419 43.7143 135.823 42 135.823C40.3929 135.823 39 134.527 39 132.797C39 131.176 40.2857 129.771 42 129.771C43.7143 129.88 45 131.176 45 132.797Z" fill="#316594" fill-opacity="0.5"/>
<path d="M45 111.075C45 112.696 43.7143 114.101 42 114.101C40.3929 114.101 39 112.804 39 111.075C39 109.346 40.2857 108.049 42 108.049C43.7143 108.049 45 109.454 45 111.075Z" fill="#316594" fill-opacity="0.5"/>
<path d="M45 89.3522C45 90.9732 43.7143 92.3782 42 92.3782C40.3929 92.3782 39 91.0813 39 89.3522C39 87.7311 40.2857 86.3262 42 86.3262C43.7143 86.3262 45 87.623 45 89.3522Z" fill="#316594" fill-opacity="0.5"/>
<path d="M45 67.5221C45 69.1432 43.7143 70.5481 42 70.5481C40.3929 70.5481 39 69.2512 39 67.5221C39 65.901 40.2857 64.4961 42 64.4961C43.7143 64.6042 45 65.901 45 67.5221Z" fill="#F4BA91"/>
<path d="M6 46.4713C6 48.0924 4.71429 49.4973 3 49.4973C1.39286 49.4973 -2.0917e-07 48.2004 -1.33108e-07 46.4713C-6.18001e-08 44.8502 1.28571 43.4453 3 43.4453C4.60714 43.5534 6 44.8502 6 46.4713Z" fill="#316594" fill-opacity="0.5"/>
<path d="M6 24.7486C6 26.3697 4.71429 27.7746 3 27.7746C1.39286 27.7746 -2.09152e-07 26.4778 -1.33097e-07 24.7486C-6.17948e-08 23.1276 1.28571 21.7227 3 21.7227C4.60714 21.7227 6 23.1276 6 24.7486Z" fill="#316594" fill-opacity="0.5"/>
<path d="M6 3.02599C6 4.64706 4.71429 6.05198 3 6.05198C1.39286 6.05198 -2.09169e-07 4.75513 -1.33107e-07 3.02599C-5.7046e-08 1.29685 1.39286 -2.00116e-07 3 -1.30308e-07C4.60714 -6.05001e-08 6 1.29685 6 3.02599Z" fill="#316594" fill-opacity="0.5"/>
<path d="M25.5 46.4713C25.5 48.0924 24.2143 49.4973 22.5 49.4973C20.8929 49.4973 19.5 48.2004 19.5 46.4713C19.5 44.8502 20.7857 43.4453 22.5 43.4453C24.1071 43.5534 25.5 44.8502 25.5 46.4713Z" fill="#F4BA91"/>
<path d="M25.5 24.7486C25.5 26.3697 24.2143 27.7746 22.5 27.7746C20.8929 27.7746 19.5 26.4778 19.5 24.7486C19.5 23.1276 20.7857 21.7227 22.5 21.7227C24.1071 21.7227 25.5 23.1276 25.5 24.7486Z" fill="#F4BA91"/>
<path d="M25.5 3.02599C25.5 4.64706 24.2143 6.05198 22.5 6.05198C20.8929 6.05198 19.5 4.75513 19.5 3.02599C19.6071 1.29685 20.8929 -2.00115e-07 22.5 -1.30308e-07C24.1071 -6.04999e-08 25.5 1.29685 25.5 3.02599Z" fill="#316594" fill-opacity="0.5"/>
<path d="M45 46.4713C45 48.0924 43.7143 49.4973 42 49.4973C40.3929 49.4973 39 48.2004 39 46.4713C39 44.8502 40.2857 43.4453 42 43.4453C43.7143 43.5534 45 44.8502 45 46.4713Z" fill="#316594" fill-opacity="0.5"/>
<path d="M45 24.7486C45 26.3697 43.7143 27.7746 42 27.7746C40.3929 27.7746 39 26.4778 39 24.7486C39 23.1276 40.2857 21.7227 42 21.7227C43.7143 21.7227 45 23.1276 45 24.7486Z" fill="#316594" fill-opacity="0.5"/>
<path d="M45 3.02599C45 4.64706 43.7143 6.05198 42 6.05198C40.3929 6.05198 39 4.75513 39 3.02599C39.1071 1.29685 40.3929 -2.00116e-07 42 -1.30308e-07C43.7143 -5.58463e-08 45 1.29685 45 3.02599Z" fill="#316594" fill-opacity="0.5"/>
<path d="M6 327.519C6 329.14 4.71429 330.545 3 330.545C1.39286 330.545 -2.14927e-07 329.248 -1.36771e-07 327.519C-6.35006e-08 325.898 1.28571 324.493 3 324.493C4.60714 324.601 6 325.898 6 327.519Z" fill="#316594" fill-opacity="0.5"/>
<path d="M6 305.797C6 307.419 4.71429 308.823 3 308.823C1.39286 308.823 -2.14939e-07 307.527 -1.3678e-07 305.797C-6.35049e-08 304.176 1.28571 302.771 3 302.771C4.60714 302.88 6 304.176 6 305.797Z" fill="#316594" fill-opacity="0.5"/>
<path d="M6 284.075C6 285.696 4.71429 287.101 3 287.101C1.39286 287.101 -2.14953e-07 285.804 -1.36788e-07 284.075C-5.86233e-08 282.346 1.28571 281.049 3 281.049C4.60714 281.049 6 282.454 6 284.075Z" fill="#316594" fill-opacity="0.5"/>
<path d="M6 262.352C6 263.973 4.71429 265.378 3 265.378C1.39286 265.378 -2.14957e-07 264.081 -1.36791e-07 262.352C-6.35098e-08 260.731 1.28571 259.326 3 259.326C4.60714 259.326 6 260.623 6 262.352Z" fill="#316594" fill-opacity="0.5"/>
<path d="M6 240.522C6 242.143 4.71429 243.548 3 243.548C1.39286 243.548 -2.14955e-07 242.251 -1.3679e-07 240.522C-6.35096e-08 238.901 1.28571 237.496 3 237.496C4.60714 237.604 6 238.901 6 240.522Z" fill="#F4BA91"/>
<path d="M25.5 327.519C25.5 329.14 24.2143 330.545 22.5 330.545C20.8929 330.545 19.5 329.248 19.5 327.519C19.5 325.898 20.7857 324.493 22.5 324.493C24.1071 324.601 25.5 325.898 25.5 327.519Z" fill="#316594" fill-opacity="0.5"/>
<path d="M25.5 305.797C25.5 307.419 24.2143 308.823 22.5 308.823C20.8929 308.823 19.5 307.527 19.5 305.797C19.5 304.176 20.7857 302.771 22.5 302.771C24.1071 302.88 25.5 304.176 25.5 305.797Z" fill="#316594" fill-opacity="0.5"/>
<path d="M25.5 284.075C25.5 285.696 24.2143 287.101 22.5 287.101C20.8929 287.101 19.5 285.804 19.5 284.075C19.5 282.346 20.7857 281.049 22.5 281.049C24.1071 281.049 25.5 282.454 25.5 284.075Z" fill="#F4BA91"/>
<path d="M25.5 262.352C25.5 263.973 24.2143 265.378 22.5 265.378C20.8929 265.378 19.5 264.081 19.5 262.352C19.5 260.731 20.7857 259.326 22.5 259.326C24.1071 259.326 25.5 260.623 25.5 262.352Z" fill="#F4BA91"/>
<path d="M25.5 240.522C25.5 242.143 24.2143 243.548 22.5 243.548C20.8929 243.548 19.5 242.251 19.5 240.522C19.5 238.901 20.7857 237.496 22.5 237.496C24.1071 237.604 25.5 238.901 25.5 240.522Z" fill="#F4BA91"/>
<path d="M45 327.519C45 329.14 43.7143 330.545 42 330.545C40.3929 330.545 39 329.248 39 327.519C39 325.898 40.2857 324.493 42 324.493C43.7143 324.601 45 325.898 45 327.519Z" fill="#316594" fill-opacity="0.5"/>
<path d="M45 305.797C45 307.419 43.7143 308.823 42 308.823C40.3929 308.823 39 307.527 39 305.797C39 304.176 40.2857 302.771 42 302.771C43.7143 302.88 45 304.176 45 305.797Z" fill="#316594" fill-opacity="0.5"/>
<path d="M45 284.075C45 285.696 43.7143 287.101 42 287.101C40.3929 287.101 39 285.804 39 284.075C39 282.346 40.2857 281.049 42 281.049C43.7143 281.049 45 282.454 45 284.075Z" fill="#316594" fill-opacity="0.5"/>
<path d="M45 262.352C45 263.973 43.7143 265.378 42 265.378C40.3929 265.378 39 264.081 39 262.352C39 260.731 40.2857 259.326 42 259.326C43.7143 259.326 45 260.623 45 262.352Z" fill="#316594" fill-opacity="0.5"/>
<path d="M45 240.522C45 242.143 43.7143 243.548 42 243.548C40.3929 243.548 39 242.251 39 240.522C39 238.901 40.2857 237.496 42 237.496C43.7143 237.604 45 238.901 45 240.522Z" fill="#316594" fill-opacity="0.5"/>
<path d="M6 219.471C6 221.092 4.71429 222.497 3 222.497C1.39286 222.497 -2.09172e-07 221.2 -1.33109e-07 219.471C-6.18008e-08 217.85 1.28571 216.445 3 216.445C4.60714 216.553 6 217.85 6 219.471Z" fill="#F4BA91"/>
<path d="M6 197.749C6 199.37 4.71429 200.775 3 200.775C1.39286 200.775 -2.09154e-07 199.478 -1.33098e-07 197.749C-6.17955e-08 196.128 1.28571 194.723 3 194.723C4.60714 194.723 6 196.128 6 197.749Z" fill="#316594" fill-opacity="0.5"/>
<path d="M6 176.026C6 177.647 4.71429 179.052 3 179.052C1.39286 179.052 -2.09171e-07 177.755 -1.33109e-07 176.026C-5.70467e-08 174.297 1.39286 173 3 173C4.60714 173 6 174.297 6 176.026Z" fill="#316594" fill-opacity="0.5"/>
<path d="M25.5 219.471C25.5 221.092 24.2143 222.497 22.5 222.497C20.8929 222.497 19.5 221.2 19.5 219.471C19.5 217.85 20.7857 216.445 22.5 216.445C24.1071 216.553 25.5 217.85 25.5 219.471Z" fill="#F4BA91"/>
<path d="M25.5 197.749C25.5 199.37 24.2143 200.775 22.5 200.775C20.8929 200.775 19.5 199.478 19.5 197.749C19.5 196.128 20.7857 194.723 22.5 194.723C24.1071 194.723 25.5 196.128 25.5 197.749Z" fill="#316594" fill-opacity="0.5"/>
<path d="M25.5 176.026C25.5 177.647 24.2143 179.052 22.5 179.052C20.8929 179.052 19.5 177.755 19.5 176.026C19.6071 174.297 20.8929 173 22.5 173C24.1071 173 25.5 174.297 25.5 176.026Z" fill="#316594" fill-opacity="0.5"/>
<path d="M45 219.471C45 221.092 43.7143 222.497 42 222.497C40.3929 222.497 39 221.2 39 219.471C39 217.85 40.2857 216.445 42 216.445C43.7143 216.553 45 217.85 45 219.471Z" fill="#316594" fill-opacity="0.5"/>
<path d="M45 197.749C45 199.37 43.7143 200.775 42 200.775C40.3929 200.775 39 199.478 39 197.749C39 196.128 40.2857 194.723 42 194.723C43.7143 194.723 45 196.128 45 197.749Z" fill="#316594" fill-opacity="0.5"/>
<path d="M45 176.026C45 177.647 43.7143 179.052 42 179.052C40.3929 179.052 39 177.755 39 176.026C39.1071 174.297 40.3929 173 42 173C43.7143 173 45 174.297 45 176.026Z" fill="#316594" fill-opacity="0.5"/>
<path d="M6 457.075C6 458.696 4.71429 460.101 3 460.101C1.39286 460.101 -2.14943e-07 458.804 -1.36782e-07 457.075C-5.86207e-08 455.346 1.28571 454.049 3 454.049C4.60714 454.049 6 455.454 6 457.075Z" fill="#316594" fill-opacity="0.5"/>
<path d="M6 478.747C6 480.368 4.71429 481.773 3 481.773C1.39286 481.773 -2.14909e-07 480.476 -1.3676e-07 478.747C-5.86114e-08 477.018 1.28571 475.721 3 475.721C4.60714 475.721 6 477.126 6 478.747Z" fill="#316594" fill-opacity="0.5"/>
<path d="M6 435.352C6 436.973 4.71429 438.378 3 438.378C1.39286 438.378 -2.14947e-07 437.081 -1.36785e-07 435.352C-6.3507e-08 433.731 1.28571 432.326 3 432.326C4.60714 432.326 6 433.623 6 435.352Z" fill="#316594" fill-opacity="0.5"/>
<path d="M6 413.522C6 415.143 4.71429 416.548 3 416.548C1.39286 416.548 -2.14946e-07 415.251 -1.36784e-07 413.522C-6.35068e-08 411.901 1.28571 410.496 3 410.496C4.60714 410.604 6 411.901 6 413.522Z" fill="#316594" fill-opacity="0.5"/>
<path d="M25.5 457.075C25.5 458.696 24.2143 460.101 22.5 460.101C20.8929 460.101 19.5 458.804 19.5 457.075C19.5 455.346 20.7857 454.049 22.5 454.049C24.1071 454.049 25.5 455.454 25.5 457.075Z" fill="#F4BA91"/>
<path d="M25.5 478.747C25.5 480.368 24.2143 481.773 22.5 481.773C20.8929 481.773 19.5 480.476 19.5 478.747C19.5 477.018 20.7857 475.721 22.5 475.721C24.1071 475.721 25.5 477.126 25.5 478.747Z" fill="#316594" fill-opacity="0.5"/>
<path d="M25.5 435.352C25.5 436.973 24.2143 438.378 22.5 438.378C20.8929 438.378 19.5 437.081 19.5 435.352C19.5 433.731 20.7857 432.326 22.5 432.326C24.1071 432.326 25.5 433.623 25.5 435.352Z" fill="#F4BA91"/>
<path d="M25.5 413.522C25.5 415.143 24.2143 416.548 22.5 416.548C20.8929 416.548 19.5 415.251 19.5 413.522C19.5 411.901 20.7857 410.496 22.5 410.496C24.1071 410.604 25.5 411.901 25.5 413.522Z" fill="#316594" fill-opacity="0.5"/>
<path d="M45 457.075C45 458.696 43.7143 460.101 42 460.101C40.3929 460.101 39 458.804 39 457.075C39 455.346 40.2857 454.049 42 454.049C43.7143 454.049 45 455.454 45 457.075Z" fill="#F4BA91"/>
<path d="M45 478.747C45 480.368 43.7143 481.773 42 481.773C40.3929 481.773 39 480.476 39 478.747C39 477.018 40.2857 475.721 42 475.721C43.7143 475.721 45 477.126 45 478.747Z" fill="#F4BA91"/>
<path d="M45 435.352C45 436.973 43.7143 438.378 42 438.378C40.3929 438.378 39 437.081 39 435.352C39 433.731 40.2857 432.326 42 432.326C43.7143 432.326 45 433.623 45 435.352Z" fill="#F4BA91"/>
<path d="M45 413.522C45 415.143 43.7143 416.548 42 416.548C40.3929 416.548 39 415.251 39 413.522C39 411.901 40.2857 410.496 42 410.496C43.7143 410.604 45 411.901 45 413.522Z" fill="#316594" fill-opacity="0.5"/>
<path d="M6 392.471C6 394.092 4.71429 395.497 3 395.497C1.39286 395.497 -2.0917e-07 394.2 -1.33108e-07 392.471C-6.18001e-08 390.85 1.28571 389.445 3 389.445C4.60714 389.553 6 390.85 6 392.471Z" fill="#316594" fill-opacity="0.5"/>
<path d="M6 370.749C6 372.37 4.71429 373.775 3 373.775C1.39286 373.775 -2.09152e-07 372.478 -1.33097e-07 370.749C-6.17948e-08 369.128 1.28571 367.723 3 367.723C4.60714 367.723 6 369.128 6 370.749Z" fill="#316594" fill-opacity="0.5"/>
<path d="M6 349.026C6 350.647 4.71429 352.052 3 352.052C1.39286 352.052 -2.09169e-07 350.755 -1.33107e-07 349.026C-5.7046e-08 347.297 1.39286 346 3 346C4.60714 346 6 347.297 6 349.026Z" fill="#316594" fill-opacity="0.5"/>
<path d="M25.5 392.471C25.5 394.092 24.2143 395.497 22.5 395.497C20.8929 395.497 19.5 394.2 19.5 392.471C19.5 390.85 20.7857 389.445 22.5 389.445C24.1071 389.553 25.5 390.85 25.5 392.471Z" fill="#316594" fill-opacity="0.5"/>
<path d="M25.5 370.749C25.5 372.37 24.2143 373.775 22.5 373.775C20.8929 373.775 19.5 372.478 19.5 370.749C19.5 369.128 20.7857 367.723 22.5 367.723C24.1071 367.723 25.5 369.128 25.5 370.749Z" fill="#316594" fill-opacity="0.5"/>
<path d="M25.5 349.026C25.5 350.647 24.2143 352.052 22.5 352.052C20.8929 352.052 19.5 350.755 19.5 349.026C19.6071 347.297 20.8929 346 22.5 346C24.1071 346 25.5 347.297 25.5 349.026Z" fill="#316594" fill-opacity="0.5"/>
<path d="M45 392.471C45 394.092 43.7143 395.497 42 395.497C40.3929 395.497 39 394.2 39 392.471C39 390.85 40.2857 389.445 42 389.445C43.7143 389.553 45 390.85 45 392.471Z" fill="#316594" fill-opacity="0.5"/>
<path d="M45 370.749C45 372.37 43.7143 373.775 42 373.775C40.3929 373.775 39 372.478 39 370.749C39 369.128 40.2857 367.723 42 367.723C43.7143 367.723 45 369.128 45 370.749Z" fill="#316594" fill-opacity="0.5"/>
<path d="M45 349.026C45 350.647 43.7143 352.052 42 352.052C40.3929 352.052 39 350.755 39 349.026C39.1071 347.297 40.3929 346 42 346C43.7143 346 45 347.297 45 349.026Z" fill="#316594" fill-opacity="0.5"/>
</svg>
