<svg width="273" height="30" viewBox="0 0 273 30" fill="none" xmlns="http://www.w3.org/2000/svg">
<path d="M113.234 0.62207L120.732 0.62207V29.3775H113.234V13.8863L106.039 25.4474H105.3L98.1721 13.9518V29.3775H90.6074V0.62207L98.1721 0.62207L105.669 12.9037L113.234 0.62207Z" fill="white" fill-opacity="0.9"/>
<path d="M18.9621 0.62207L9.75 0.62207L0 29.3775H8.20345L9.48103 25.2181H19.2983L20.5759 29.3775H28.7121L18.9621 0.62207ZM11.3974 18.8972L14.356 9.1046L17.3483 18.8972H11.3974Z" fill="white" fill-opacity="0.9"/>
<path d="M42.8659 0.62207L30.8633 0.62207V19.716H38.6297V7.72906L42.8995 7.72906C44.9503 7.72906 46.6314 8.38408 47.909 9.72688C49.1866 11.0697 49.859 12.8055 49.859 14.9998C49.859 17.1941 49.2202 18.9627 47.909 20.2727C46.5978 21.6155 44.9503 22.2705 42.8995 22.2705H42.1598H38.6633H30.8633L30.8633 29.3775H42.8995C46.9676 29.3775 50.3969 28.002 53.1202 25.2509C55.8771 22.4998 57.2219 19.0937 57.2219 14.9998C57.2219 10.9059 55.8435 7.4998 53.1202 4.74871C50.3633 1.99762 46.9676 0.62207 42.8659 0.62207Z" fill="white" fill-opacity="0.9"/>
<path d="M72.755 0.62207L60.7188 0.62207V7.72906H68.4851L71.511 7.72906H72.755C74.8058 7.72906 76.4869 8.38408 77.7644 9.72687C79.042 11.0697 79.7144 12.8055 79.7144 14.9998C79.7144 17.1941 79.0756 18.9627 77.7644 20.2727C76.4532 21.6155 74.8058 22.2705 72.755 22.2705H68.4851V10.2836H60.7188V29.3775H72.755C76.8231 29.3775 80.2524 28.002 82.9756 25.2509C85.7325 22.4998 87.0774 19.0937 87.0774 14.9998C87.0774 10.9059 85.6989 7.4998 82.9756 4.74871C80.2524 1.99762 76.8231 0.62207 72.755 0.62207Z" fill="white" fill-opacity="0.9"/>
<path d="M227.209 7.72906H234.505V29.3775H242.069V7.72906H249.365V0.62207L227.209 0.62207V7.72906Z" fill="white" fill-opacity="0.9"/>
<path d="M272.227 17.2926C271.723 16.2445 270.949 15.3603 269.907 14.7052C268.865 14.0502 267.924 13.5262 267.049 13.1659C266.175 12.8057 265.032 12.4127 263.587 12.0197C261.603 11.4301 260.258 10.9389 259.552 10.5131C258.846 10.0873 258.51 9.53057 258.51 8.9083C258.51 8.35153 258.745 7.89301 259.216 7.5655C259.687 7.20524 260.359 7.04148 261.267 7.04148C263.418 7.04148 264.931 8.12227 265.873 10.2511L272.193 6.64847C271.185 4.51965 269.705 2.8821 267.789 1.76856C265.906 0.556769 263.687 0 261.233 0C258.308 0 255.854 0.818777 253.904 2.45633C251.954 4.09389 250.979 6.25546 250.979 8.9083C250.979 11.3646 251.752 13.2969 253.332 14.6725C254.912 16.048 257.03 17.1288 259.754 17.9148C261.67 18.4389 262.914 18.7991 263.452 19.0284C264.763 19.5524 265.436 20.2402 265.436 21.0917C265.436 22.369 264.293 23.024 261.973 23.024C259.182 23.024 257.232 21.7467 256.156 19.1921L249.701 22.8603C250.508 25.0546 251.954 26.7904 254.005 28.0677C256.055 29.345 258.644 30 261.771 30C265.133 30 267.856 29.214 269.907 27.6092C271.958 26.0044 273 23.81 273 20.9935C273 19.5852 272.731 18.3406 272.227 17.2926Z" fill="white" fill-opacity="0.9"/>
<path d="M141.845 0.62207L132.633 0.62207L122.883 29.4103H131.086L132.364 25.2509H142.181L143.459 29.4103H151.595L141.845 0.62207ZM134.28 18.8972L137.239 9.1046L140.231 18.8972H134.28Z" fill="white" fill-opacity="0.9"/>
<path d="M214.096 18.2422H224.249V11.4627H214.096V7.46705L225.292 7.46705V0.62207L206.531 0.62207V29.3775H225.527V22.4998H214.096V18.2422Z" fill="white" fill-opacity="0.9"/>
<path d="M203.943 0.62207L195.504 0.62207L187.469 12.7072V0.62207L179.904 0.62207V29.3775H187.469V16.5391L195.941 29.3775H204.38L194.597 14.6068L203.943 0.62207Z" fill="white" fill-opacity="0.9"/>
<path d="M171.164 18.733C172.711 17.8814 173.921 16.7352 174.829 15.2941C175.736 13.8531 176.173 12.281 176.173 10.5452C176.173 7.6631 175.165 5.30502 173.114 3.40546C171.063 1.53865 168.542 0.588867 165.549 0.588867L165.079 0.588867H163.902L161.28 0.588867L156.203 0.588867L153.715 0.588867V29.3771H161.28V20.1085H163.969L169.113 29.4098H177.216L171.164 18.733ZM167.735 13.0015C167.13 13.5911 166.39 13.8858 165.448 13.8531H161.28V11.9862V7.40109H163.902L165.079 7.40109H165.448C166.39 7.40109 167.13 7.69585 167.735 8.31813C168.34 8.90764 168.609 9.69367 168.609 10.6762C168.642 11.5932 168.34 12.3793 167.735 13.0015Z" fill="white" fill-opacity="0.9"/>
</svg>
