<svg width="75" height="27" viewBox="0 0 75 27" fill="none" xmlns="http://www.w3.org/2000/svg">
<path fill-rule="evenodd" clip-rule="evenodd" d="M71.6292 0.652344C71.4607 0.652344 71.4607 0.652344 71.6292 0.652344L71.4607 3.68302C71.4607 3.68302 71.4607 3.84253 71.6292 3.84253H74.8315C74.8315 3.84253 75 3.84253 75 3.68302V0.811853C75 0.811853 75 0.652344 74.8315 0.652344H71.6292ZM0.168539 0.652344C0 0.652344 0 0.652344 0.168539 0.652344L0 21.548C0 21.548 0 21.7076 0.168539 21.7076H3.20225C3.20225 21.7076 3.37079 21.7076 3.37079 21.548V13.5726L11.4607 21.548H11.6292C11.7978 21.548 16.0112 21.548 16.1798 21.548H16.3483V21.3885L6.91011 12.6155L15.1685 5.91615V5.75664C15.1685 5.75664 15.1685 5.59713 15 5.59713H10.7865C10.7865 5.59713 10.7865 5.59713 10.618 5.59713L8.59551 7.67075L3.37079 12.137V0.811853C3.37079 0.652344 3.37079 0.652344 3.20225 0.652344H0.168539ZM35.2247 10.0634C35.2247 13.0941 37.7528 14.0511 40.2809 14.6892C40.4494 14.6892 40.618 14.8487 41.2921 14.8487C42.9775 15.1677 45.1685 15.6462 45.1685 17.2413C45.1685 19.1554 41.9663 19.4744 40.618 19.4744C38.9326 19.4744 37.4157 19.1554 35.3933 18.8364H35.2247C35.2247 18.8364 35.2247 18.8364 35.2247 18.9959V21.3885C35.2247 21.3885 35.2247 21.548 35.3933 21.548C37.4157 21.8671 39.2697 22.1861 40.9551 22.1861C45.8427 22.1861 48.7079 20.272 48.7079 17.0818C48.7079 13.5726 45.3371 12.775 42.4719 12.2965C40.4494 11.6585 38.764 11.3395 38.764 9.90388C38.764 8.30879 40.9551 7.98977 42.809 7.98977C44.4944 7.98977 46.1798 8.30879 47.5281 8.4683H47.6966C47.6966 8.4683 47.6966 8.4683 47.6966 8.30879V5.91615C47.6966 5.91615 47.6966 5.75664 47.5281 5.75664H47.191C46.0112 5.59713 44.3258 5.43762 42.1348 5.43762C37.7528 5.43762 35.2247 7.19222 35.2247 10.0634ZM18.2022 5.91615L18.0337 8.30879C18.0337 8.30879 18.0337 8.30879 18.0337 8.4683C18.0337 8.4683 18.0337 8.4683 18.2022 8.4683C19.8876 8.14928 21.9101 7.83026 23.5955 7.83026C27.9775 7.83026 28.1461 8.6278 28.1461 11.6585L26.9663 11.818H25.9551C22.5843 11.818 17.0225 11.818 17.0225 16.9223C17.0225 21.548 20.5618 22.1861 24.4382 22.1861C26.4607 22.1861 28.6517 22.1861 31.6854 21.8671C31.6854 21.8671 31.8539 21.8671 31.8539 21.7076V10.7014C31.8539 5.75664 28.3146 5.43762 24.1011 5.43762C22.0786 5.43762 20.2247 5.59713 18.2022 5.91615ZM20.5618 16.7628C20.5618 14.5296 22.5843 14.0511 25.7865 14.0511H26.7978H28.3146V19.1554H27.1348C24.9438 19.6339 20.5618 19.3149 20.5618 16.7628ZM53.764 5.59713H52.4157C52.4157 5.59713 52.2472 5.59713 52.2472 5.75664V26.4928C52.2472 26.4928 52.2472 26.4928 52.2472 26.6523C52.2472 26.6523 52.2472 26.6523 52.4157 26.6523H55.618C55.618 26.6523 55.7865 26.6523 55.7865 26.4928V21.8671C57.3034 22.0266 58.1461 22.0266 58.8202 22.0266C60.8427 22.0266 62.5281 21.548 64.2135 20.591C66.4045 19.3149 67.7528 16.7628 67.7528 13.4131C67.7528 11.6585 67.2472 8.30879 64.2135 6.39468C62.191 5.59713 60 5.43762 57.809 5.43762L53.764 5.59713ZM55.7865 8.14928L58.1461 7.98977C62.0225 7.98977 64.0449 9.90388 64.0449 13.5726C64.0449 18.5174 61.0112 19.4744 58.6517 19.4744L55.7865 19.3149V8.14928ZM71.6292 5.75664C71.4607 5.75664 71.4607 5.75664 71.6292 5.75664L71.4607 21.548C71.4607 21.548 71.4607 21.7076 71.6292 21.7076H74.8315C74.8315 21.7076 75 21.7076 75 21.548V5.91615C75 5.91615 75 5.75664 74.8315 5.75664H71.6292Z" fill="white"/>
</svg>
