<svg width="103" height="21" viewBox="0 0 103 21" fill="none" xmlns="http://www.w3.org/2000/svg">
<path d="M46.3998 17.5477H50.0608V10.1339C50.0608 6.24071 47.5066 4.16983 44.3991 4.16983C42.3558 4.16983 40.8234 5.0396 39.7166 6.24071H39.2058C38.3544 5.16385 36.9071 4.16983 34.7787 4.16983C32.8205 4.16983 31.2454 4.99818 30.4366 5.9922H29.9258V4.54259H26.5203V17.5477H30.1812V10.7552C30.1812 8.43583 30.9049 7.6489 33.3313 7.6489C35.7577 7.6489 36.4388 8.43583 36.4388 10.7552V17.5477H40.0998V10.7552C40.0998 8.43583 40.7808 7.6489 43.2498 7.6489C45.6762 7.6489 46.3573 8.43583 46.3573 10.7552L46.3998 17.5477ZM11.8767 15.6839C11.1956 15.2283 10.9402 14.5242 10.9402 13.4888C10.9402 12.2048 11.3659 10.5895 12.047 9.88544C12.5152 9.42985 13.1964 9.18134 14.1329 9.18134C15.4525 9.18134 17.0701 9.51268 17.7512 10.2168C18.2195 10.6724 18.3897 11.2936 18.3897 12.122C18.3897 13.3645 18.0065 15.104 17.2403 15.8496C16.7721 16.2637 16.1761 16.4294 15.3247 16.4294C14.0902 16.4294 12.643 16.1809 11.8767 15.6839ZM17.666 18.4174L17.4958 19.6185L20.9013 20.0327L22.5189 7.15189L19.1134 6.73772L18.9431 7.98024H18.56C18.0492 7.11047 16.687 5.90937 14.0903 5.90937C10.4719 5.90937 7.83265 8.47725 7.3644 12.0391C7.32183 12.3705 7.27928 12.7432 7.27928 13.0746C7.27928 16.4708 9.62054 19.2458 13.324 19.6185C13.5369 19.6185 13.7498 19.66 13.92 19.66C15.4525 19.66 16.6018 18.9973 17.1978 18.4588H17.666V18.4174ZM95.0558 14.607C92.3314 14.607 91.395 13.7373 91.395 11.0451C91.395 8.39441 92.2889 7.44181 95.0558 7.44181C97.7802 7.44181 98.7168 8.35299 98.7168 11.0451C98.7168 13.7373 97.7802 14.607 95.0558 14.607ZM77.475 14.607C74.7506 14.607 73.8141 13.7373 73.8141 11.0451C73.8141 8.39441 74.708 7.44181 77.475 7.44181C80.1993 7.44181 81.1359 8.35299 81.1359 11.0451C81.0933 13.7373 80.1993 14.607 77.475 14.607ZM60.3199 14.607C57.5955 14.607 56.6589 13.7373 56.6589 11.0451C56.6589 8.39441 57.5529 7.44181 60.3199 7.44181C63.0443 7.44181 63.9807 8.35299 63.9807 11.0451C63.9807 13.7373 63.0443 14.607 60.3199 14.607ZM2.21365 0.152344L0 17.5062L3.61834 17.9204L5.78938 0.566518L2.21365 0.152344ZM98.8445 16.3051V17.5477H102.25V4.54259H98.8445V5.78511H98.3336C97.7802 5.08102 96.4181 4.16983 94.545 4.16983C90.4584 4.16983 87.6914 7.19331 87.6914 11.0451C87.6914 14.8969 90.4584 17.9204 94.545 17.9204C96.4181 17.9204 97.7802 17.0092 98.3336 16.3051H98.8445ZM60.3199 4.16983C55.8076 4.16983 52.998 7.19331 52.998 11.0451C52.998 14.8969 55.8076 17.9204 60.3199 17.9204C64.8747 17.9204 67.6842 14.9384 67.6842 11.0451C67.6842 7.19331 64.8747 4.16983 60.3199 4.16983ZM81.3061 16.3051V17.5477H84.7116V0.318013H81.0933V5.82653H80.5825C80.0291 5.12244 78.7946 4.21125 76.9641 4.21125C72.8776 4.21125 70.1107 7.23472 70.1107 11.0865C70.1107 14.9384 72.9201 17.9618 76.9641 17.9618C78.8372 17.9618 80.2845 17.0507 80.7953 16.3466H81.3061V16.3051Z" fill="white"/>
</svg>
