<svg width="295" height="202" viewBox="0 0 295 202" fill="none" xmlns="http://www.w3.org/2000/svg">
<path d="M269.041 44.8999C284.973 58.4874 293.636 75.6186 294.681 95.9961C295.843 116.473 289.18 135.039 274.808 151.793L232.441 201.182L155.922 135.922L183.273 104.039L231.882 145.495L246.898 127.991C254.084 119.613 257.425 110.554 256.804 100.715C256.183 90.8754 251.574 82.3982 242.969 75.059C234.363 67.7198 225.25 64.4939 215.405 65.4074C205.667 66.1958 197.209 70.8907 189.916 79.393L132.641 146.161C124.06 156.164 114.477 163.58 103.775 168.309C103.114 168.611 102.345 169.037 101.567 169.24C94.9416 172.034 87.9315 173.633 80.4382 174.387C75.2966 174.982 70.3515 174.878 65.5046 174.425C51.9743 173.061 39.5246 167.856 28.1552 158.809L23.7362 155.04C9.16376 141.746 1.19838 125.21 0.188899 105.729C-0.973007 85.2528 5.69036 66.6868 20.0627 49.9322L62.4291 0.543714L138.948 65.8032L111.598 97.6869L63.1046 56.3295L48.0887 73.8342C40.9025 82.2115 37.5618 91.2703 38.1828 101.11C38.8038 110.949 43.4126 119.427 52.0181 126.766C60.6235 134.105 69.7371 137.331 79.5821 136.417C89.32 135.629 97.7775 130.934 105.071 122.432L162.346 55.6635C176.718 38.909 194.08 29.4673 214.548 27.4379C234.909 25.5335 253.109 31.3125 269.041 44.8999Z" fill="url(#paint0_linear_8572_2796)"/>
<defs>
<linearGradient id="paint0_linear_8572_2796" x1="48.6466" y1="16.6106" x2="245.739" y2="185.68" gradientUnits="userSpaceOnUse">
<stop stop-color="#B5DFFF"/>
<stop offset="0.322917" stop-color="#B5DFFF" stop-opacity="0.677083"/>
<stop offset="1" stop-color="#B5DFFF" stop-opacity="0"/>
</linearGradient>
</defs>
</svg>
