<svg width="63" height="33" viewBox="0 0 63 33" fill="none" xmlns="http://www.w3.org/2000/svg">
<path d="M27.35 10.4897V15.3561H24.7424V8.11426C24.9737 8.52417 25.2681 8.91307 25.6151 9.27043C26.0147 9.68035 26.4457 10.0167 26.9189 10.2795C27.0556 10.353 27.2028 10.4161 27.35 10.4897Z" fill="#303030"/>
<path d="M40.7434 13.5874C40.7434 15.1195 40.2553 16.4167 39.279 17.4456C38.3027 18.4856 37.0878 19 35.6343 19H31.3495V11.6416H34.1156V16.3161H35.6343C36.361 16.3161 36.9576 16.07 37.4241 15.5668C37.8905 15.0636 38.1183 14.4038 38.1183 13.5762C38.1183 12.7487 37.8905 12.0889 37.4241 11.5856C36.9685 11.0824 36.3719 10.8364 35.6343 10.8364H29.8417C28.9739 10.8364 28.1929 10.6574 27.4987 10.2884C27.4553 10.266 27.401 10.2437 27.3576 10.2101C26.9346 9.97528 26.5549 9.66215 26.197 9.28193C25.9475 9.02472 25.7414 8.74514 25.557 8.45438C25.0471 7.63802 24.776 6.69865 24.7434 5.63626V5.2113C24.7868 3.76869 25.2749 2.53855 26.2078 1.55444C27.1841 0.51442 28.399 0 29.8526 0H34.1373V7.35845H31.3712V2.69511H29.8526C29.1258 2.69511 28.5292 2.94114 28.0627 3.44438C27.5963 3.94762 27.3685 4.60742 27.3685 5.43496C27.3685 6.26251 27.5963 6.92231 28.0627 7.42554C28.5183 7.92878 29.1149 8.17481 29.8526 8.17481H35.6451C37.0987 8.17481 38.3136 8.68923 39.2898 9.72925C40.2553 10.7693 40.7434 12.0553 40.7434 13.5874Z" fill="#303030"/>
<path d="M26.0211 26.0479H27.7506V32.8286H26.0211V29.18L24.3703 31.8968H24.1906L22.5622 29.1912V32.8286H20.8215V26.0479H22.5622L24.2804 28.9443L26.0211 26.0479Z" fill="#303030"/>
<path d="M4.35731 26.0479H2.2348L0 32.8286H1.88667L2.17865 31.8519H4.43592L4.7279 32.8286H6.60334L4.35731 26.0479ZM2.61663 30.3588L3.29044 28.0461L3.97548 30.3588H2.61663Z" fill="#47A7E3"/>
<path d="M9.84807 26.0479H7.08545V30.5496H8.87105V27.7206H9.84807C10.3197 27.7206 10.7016 27.8778 11.0048 28.1921C11.2968 28.5064 11.454 28.9218 11.454 29.4382C11.454 29.9546 11.308 30.37 11.0048 30.6844C10.7128 30.9987 10.3197 31.1559 9.84807 31.1559H9.67962H8.87105H7.08545V32.8286H9.84807C10.7802 32.8286 11.5663 32.503 12.1952 31.8519C12.8241 31.2008 13.1385 30.3925 13.1385 29.4382C13.1385 28.4728 12.8241 27.6645 12.1952 27.0245C11.5775 26.3734 10.7914 26.0479 9.84807 26.0479Z" fill="#47A7E3"/>
<path d="M16.7219 26.0479H13.9592V27.7206H15.7448H16.4411H16.7331C17.2047 27.7206 17.5866 27.8778 17.8898 28.1921C18.1818 28.5064 18.339 28.9218 18.339 29.4382C18.339 29.9546 18.193 30.37 17.8898 30.6844C17.5978 30.9987 17.2047 31.1559 16.7331 31.1559H15.7561V28.3268H13.9705V32.8286H16.7331C17.6652 32.8286 18.4513 32.503 19.0802 31.8519C19.7091 31.2008 20.0235 30.3925 20.0235 29.4382C20.0235 28.4728 19.7091 27.6645 19.0802 27.0245C18.4401 26.3734 17.654 26.0479 16.7219 26.0479Z" fill="#47A7E3"/>
<path d="M52.2092 27.7206H53.8938V32.8286H55.6232V27.7206H57.3077V26.0479H52.2092V27.7206Z" fill="#303030"/>
<path d="M62.5631 29.977C62.4508 29.73 62.2711 29.528 62.0353 29.3708C61.7995 29.2136 61.5748 29.0901 61.3727 29.0116C61.1706 28.933 60.9123 28.8319 60.5754 28.7421C60.1149 28.6074 59.8117 28.4839 59.6545 28.3829C59.4973 28.2818 59.4186 28.1584 59.4186 28.0012C59.4186 27.8665 59.4748 27.7654 59.5759 27.6756C59.6769 27.597 59.8342 27.5521 60.0475 27.5521C60.5417 27.5521 60.8898 27.7991 61.1032 28.3043L62.5631 27.4511C62.3273 26.9459 61.9904 26.5642 61.5524 26.2948C61.1144 26.0253 60.609 25.9019 60.0363 25.9019C59.3625 25.9019 58.801 26.0927 58.3518 26.4856C57.9026 26.8786 57.678 27.3837 57.678 28.0124C57.678 28.5962 57.8577 29.0452 58.217 29.3708C58.5764 29.6964 59.0705 29.9546 59.6882 30.1342C60.1262 30.2577 60.4069 30.3475 60.5417 30.3924C60.8449 30.5159 61.0021 30.6731 61.0021 30.8751C61.0021 31.1783 60.7326 31.3354 60.2048 31.3354C59.5646 31.3354 59.1154 31.0323 58.8684 30.4373L57.386 31.3017C57.5769 31.8182 57.9026 32.2335 58.3742 32.5366C58.8459 32.8398 59.4411 32.9969 60.1598 32.9969C60.9347 32.9969 61.5636 32.8061 62.0353 32.4356C62.507 32.0651 62.7428 31.5375 62.7428 30.8751C62.7316 30.5159 62.6754 30.224 62.5631 29.977Z" fill="#303030"/>
<path d="M32.59 26.0479H30.4787L28.2439 32.8286H30.1306L30.4225 31.8519H32.6798L32.9718 32.8286H34.8472L32.59 26.0479ZM30.8605 30.3588L31.5343 28.0461L32.2194 30.3588H30.8605Z" fill="#303030"/>
<path d="M49.1987 30.2016H51.5346V28.6075H49.1987V27.6645H51.7704V26.0479H47.458V32.8286H51.8265V31.2008H49.1987V30.2016Z" fill="#303030"/>
<path d="M46.8636 26.0479H44.932L43.0791 28.8994V26.0479H41.3384V32.8286H43.0791V29.7975L45.0219 32.8286H46.9647L44.7187 29.3484L46.8636 26.0479Z" fill="#303030"/>
<path d="M39.3283 30.3251C39.6876 30.123 39.9684 29.8536 40.1705 29.5168C40.3727 29.18 40.485 28.8095 40.485 28.3942C40.485 27.7206 40.2491 27.1593 39.7775 26.7102C39.3058 26.2724 38.7331 26.0479 38.0368 26.0479H37.9245H37.655H37.0598H35.8918H35.3191V32.8286H37.0598V30.6394H37.6774L38.8566 32.8286H40.7208L39.3283 30.3251ZM38.5534 28.9667C38.4186 29.1127 38.2389 29.18 38.0256 29.1688H37.0598V28.7197V27.642H37.6662H37.9357H38.0256C38.2389 27.642 38.4186 27.7094 38.5534 27.8553C38.6881 28.0012 38.7555 28.1809 38.7555 28.4054C38.7555 28.6411 38.6881 28.8208 38.5534 28.9667Z" fill="#303030"/>
</svg>
