<svg width="67" height="15" viewBox="0 0 67 15" fill="none" xmlns="http://www.w3.org/2000/svg">
<path fill-rule="evenodd" clip-rule="evenodd" d="M8.1119 0.694629C5.02625 0.398636 2.07098 2.00545 0.723726 4.71167C-0.623529 7.41789 -0.0585296 10.6738 2.15792 12.8303C4.33092 14.9445 7.67726 15.5365 10.4587 14.2257C13.2401 12.9149 14.9351 10.0818 14.5874 7.07961C14.2832 3.69684 11.5887 1.03291 8.1119 0.694629ZM7.8946 11.5195C6.24313 11.7309 4.63513 10.8852 3.89632 9.44755C3.1575 8.00987 3.4617 6.23392 4.63511 5.09223C5.80853 3.95055 7.63386 3.65455 9.1115 4.37339C10.6326 5.09223 11.4583 6.65676 11.241 8.26358C11.0237 9.95496 9.633 11.3081 7.8946 11.5195ZM18.5423 0.990621C18.0207 0.990621 17.5427 1.20204 17.2385 1.62489C16.9343 2.00545 16.8038 2.51287 16.8908 3.02028C17.0646 3.78141 17.8034 4.33111 18.6292 4.33111H23.3662L15.9781 13.8451C15.7173 14.1411 15.9781 14.6063 16.3693 14.6063H27.973C28.7988 14.6063 29.5376 14.0566 29.7114 13.2954C29.7983 12.788 29.7114 12.2806 29.3637 11.9001C29.0595 11.5195 28.538 11.2658 28.0599 11.2658H22.2797L29.6679 1.75174C29.9287 1.45575 29.668 0.990621 29.2768 0.990621H18.5423ZM64.9139 0.990621C64.1316 1.15976 63.5666 1.8786 63.5666 2.63972V8.17901L54.3531 1.03291C54.0489 0.779197 53.5708 0.990621 53.5708 1.41347V12.8303C53.5708 13.6337 54.0924 14.3103 54.9181 14.4794C55.4397 14.6063 55.9612 14.4794 56.3523 14.1411C56.7435 13.8451 57.0042 13.3377 57.0042 12.8303V7.33332L66.2177 14.4794C66.5219 14.7331 67 14.5217 67 14.0989V2.63972C67 2.13231 66.7827 1.66718 66.3481 1.3289C65.957 1.03291 65.392 0.906052 64.9139 0.990621ZM40.9241 3.99283C44.8355 3.99283 47.7473 5.98021 47.7473 7.79845C47.7473 9.5744 44.8355 11.6041 40.9241 11.6041C37.0127 11.6041 34.1009 9.61669 34.1009 7.79845C34.1009 5.98021 37.0127 3.99283 40.9241 3.99283ZM40.9241 0.652344C35.2743 0.652344 30.711 3.82369 30.711 7.75616C30.711 11.6886 35.2743 14.86 40.9241 14.86C46.5739 14.86 51.1372 11.6886 51.1372 7.75616C51.1372 3.82369 46.5739 0.652344 40.9241 0.652344Z" fill="white"/>
</svg>
