<svg width="151" height="34" viewBox="0 0 151 34" fill="none" xmlns="http://www.w3.org/2000/svg">
<path d="M6.32617 7.45612V10.3709L10.1981 12.7988L19.4761 5.97537C19.1473 5.26382 18.7377 4.59241 18.2555 3.97437L10.1981 9.88067L6.32617 7.45612Z" fill="white"/>
<path d="M18.0232 9.96044V10.1672C18.0236 11.2591 17.7942 12.3388 17.3501 13.3362C16.906 14.3337 16.2569 15.2265 15.4452 15.9568C14.0063 17.2598 12.1338 17.9803 10.1926 17.9778C10.0626 17.9844 9.93235 17.9844 9.80237 17.9778C8.77656 17.9277 7.77073 17.6756 6.84249 17.2361C5.91425 16.7966 5.08185 16.1783 4.39298 15.4165C3.08583 13.981 2.36259 12.1087 2.36529 10.1672C2.36529 10.0338 2.36529 9.90708 2.36529 9.77701C2.41614 8.75215 2.66921 7.74746 3.10993 6.82081C3.55065 5.89415 4.17031 5.06382 4.93325 4.37762C6.23655 3.1971 7.89914 2.4894 9.65345 2.36841C11.4078 2.24742 13.1518 2.72019 14.6048 3.71062L16.5891 2.26656C14.9143 0.915702 12.8523 0.134134 10.7028 0.0354359V0.0120908C9.2847 -0.0571815 7.86782 0.171784 6.5437 0.684198C5.21959 1.19661 4.01768 1.98108 3.01561 2.98692C1.21631 4.75812 0.145489 7.1389 0.014102 9.66028C-0.0565054 10.9956 0.138533 12.3317 0.587919 13.5911C1.03731 14.8506 1.73211 16.0083 2.63209 16.9973C2.73547 17.1107 2.83886 17.2174 2.94558 17.3308L3.01561 17.3542C3.96093 18.2986 5.08312 19.0474 6.31803 19.5579C7.55293 20.0683 8.87633 20.3303 10.2126 20.329C12.7321 20.3259 15.16 19.3842 17.0227 17.6877C18.0782 16.7396 18.9224 15.5801 19.5004 14.2844C20.0785 12.9888 20.3774 11.586 20.3777 10.1672C20.3789 9.55762 20.3242 8.94921 20.2143 8.34962L18.0232 9.96044Z" fill="white"/>
<path d="M32.6952 16.1369C34.5661 16.1369 36.2103 15.4699 37.3141 14.3027L35.6466 13.0687L35.073 13.3822C34.3854 13.7521 33.616 13.9435 32.8352 13.9392C30.5007 13.9392 28.7899 12.2717 28.7899 9.97383C28.7899 7.67601 30.4574 6.01517 32.8019 6.01517C33.647 6.00535 34.4736 6.26336 35.1631 6.75221L37.0307 5.38152L36.9039 5.2748C35.7293 4.28556 34.23 3.76637 32.6952 3.8174C30.9986 3.77636 29.3507 4.38613 28.0895 5.52159C27.5002 6.08767 27.0342 6.76944 26.7209 7.52413C26.4075 8.27881 26.2535 9.09012 26.2686 9.90713C26.258 10.7321 26.4135 11.5509 26.7257 12.3146C27.038 13.0783 27.5006 13.7714 28.0862 14.3527C29.3286 15.5296 30.9841 16.1705 32.6952 16.1369Z" fill="white"/>
<path d="M49.7051 12.2048C49.7051 9.91362 48.1177 8.65632 45.2529 8.65632H42.0946V5.98831H47.1405L49.8586 3.9873H39.5V15.9934H44.9261C47.9709 15.98 49.7051 14.6027 49.7051 12.2048ZM42.0946 13.9823V10.6473H44.8027C46.4535 10.6473 47.2172 11.2109 47.2172 12.3148C47.2172 13.4187 46.4001 13.9823 44.8027 13.9823H42.0946Z" fill="white"/>
<path d="M61.2313 13.9827H54.7347V10.9044H60.2808V8.90677H54.7347V5.97529H58.5133L61.2313 3.97095H52.1367V15.9803H61.2313V13.9827Z" fill="white"/>
<path d="M68.6048 3.97095H63.6523V15.977H66.2503V12.5786H68.6048C71.7698 12.5786 73.7341 10.9111 73.7341 8.26978C73.7341 5.62845 71.7698 3.97095 68.6048 3.97095ZM68.5515 10.5809H66.2503V5.97529H68.5515C70.219 5.97529 71.1328 6.7957 71.1328 8.27979C71.1328 9.76387 70.2123 10.5809 68.5515 10.5809Z" fill="white"/>
<path d="M85.0842 28.1731L81.0989 21.6465H78.3809V33.6425H80.5319V24.718L84.4773 31.0012H85.5611L89.4331 24.6247V33.6425H91.5775V21.6465H89.0329L85.0842 28.1731Z" fill="white"/>
<path d="M133.333 28.4499H138.862V26.4789H133.333V23.6175H139.496V21.6465H131.182V33.6392H139.686V31.6682H133.333V28.4499Z" fill="white"/>
<path d="M97.9676 21.6465L93.0918 33.6525H95.2696L96.3968 30.7944H101.91L103.06 33.6392H105.345L100.399 21.6465H97.9676ZM97.1805 28.8234L99.1548 23.911L101.129 28.8234H97.1805Z" fill="white"/>
<path d="M128.915 21.6465H126.304L122.436 26.6824H120.638V21.6465H118.49V33.6392H120.638V28.4499H122.542L126.904 33.6392H129.653L124.33 27.3527L128.915 21.6465Z" fill="white"/>
<path d="M115.014 22.6703C114.161 21.99 112.782 21.6487 110.879 21.6465H106.877V33.6525H109.021V29.9073H110.876C112.654 29.9073 114.001 29.5582 114.914 28.8601C115.828 28.162 116.287 27.1115 116.292 25.7085C116.295 24.3579 115.865 23.3573 115.014 22.6703ZM113.307 27.4127C112.8 27.7462 112.046 27.933 111.039 27.933H109.038V23.6175H111.069C112.121 23.6175 112.882 23.772 113.354 24.081C113.82 24.3879 114.057 24.9181 114.057 25.6518C114.071 26.4789 113.807 27.0625 113.307 27.4127Z" fill="white"/>
<path d="M33.601 28.1798L29.619 21.6465H26.9043V33.6425H29.0487V24.718L33.0007 31.0012H34.0812L37.9499 24.6313V33.6425H40.0943V21.6465H37.553L33.601 28.1798Z" fill="white"/>
<path d="M140.818 21.6465V23.6175H144.8V33.6392H146.948V23.6175H151V21.6465H140.818Z" fill="white"/>
<path d="M62.0963 21.6465H53.9355V33.6392H56.0833V23.6175H62.0963V21.6465Z" fill="white"/>
<path d="M65.7586 21.6465L60.8828 33.6525H63.0472L64.1811 30.8078H69.7173L70.8645 33.6525H73.149L68.1998 21.6465H65.7586ZM64.9649 28.8234L66.9425 23.911L68.9169 28.8234H64.9649Z" fill="white"/>
<path d="M45.1985 28.4499H50.728V26.4789H45.1985V23.6175H51.3616V21.6465H43.0508V33.6392H51.5551V31.6682H45.1985V28.4499Z" fill="white"/>
</svg>
