<svg width="84" height="35" viewBox="0 0 84 35" fill="none" xmlns="http://www.w3.org/2000/svg">
<path d="M13.5147 1.70482C11.6907 1.06408 9.71762 0.978599 7.84503 1.45919C6.6016 1.77832 5.4332 2.33924 4.40655 3.10993C3.3799 3.88063 2.51512 4.84599 1.86157 5.95091C1.20802 7.05584 0.77852 8.27867 0.597582 9.54958C0.416644 10.8205 0.487816 12.1146 0.807034 13.358C1.28777 15.2306 2.31298 16.9185 3.75302 18.2084C5.19306 19.4983 6.98326 20.3323 8.89724 20.6047C10.8112 20.8772 12.763 20.5761 14.5058 19.7393C16.2486 18.9025 17.7042 17.5678 18.6884 15.9038C19.6726 14.2398 20.1413 12.3213 20.0353 10.3909C19.9292 8.46056 19.2531 6.605 18.0924 5.05889C16.9318 3.51278 15.3387 2.34556 13.5147 1.70482Z" stroke="white"/>
<path fill-rule="evenodd" clip-rule="evenodd" d="M34.2432 6.60616H32.5062C29.0407 6.60616 26.0727 15.3331 30.1706 15.3331H32.8013C34.3275 15.3331 35.4489 15.8812 34.9514 17.3652L34.2685 19.4141H31.4691H29.1925C26.292 19.3551 24.4117 17.9385 23.7624 15.78C23.0036 13.4528 24.0407 8.56234 27.034 5.43413C27.9684 4.46678 29.0946 3.70532 30.3404 3.19857C31.5862 2.69183 32.9241 2.45097 34.2685 2.49143H39.9768L39.083 5.02098C38.9473 5.53638 38.6213 5.98122 38.1707 6.26595C37.7202 6.55068 37.1785 6.65416 36.6547 6.55557L34.2432 6.60616Z" fill="white"/>
<path fill-rule="evenodd" clip-rule="evenodd" d="M65.7348 8.93335H56.5526C55.0349 8.93335 54.3435 9.34651 54.0737 10.2234L53.2305 13.0143H62.3958C63.9136 13.0143 64.605 12.5928 64.8748 11.7158L65.7348 8.93335Z" fill="white"/>
<path fill-rule="evenodd" clip-rule="evenodd" d="M63.5024 15.3331H54.3202C52.8025 15.3331 52.111 15.7547 51.8412 16.6232L50.998 19.4141H60.1634C61.6812 19.4141 62.3726 19.0009 62.6424 18.124L63.4856 15.3331H63.5024ZM67.8701 2.49146H58.6879C57.1701 2.49146 56.4787 2.91305 56.2089 3.78995L55.3657 6.58088H64.5227C66.0488 6.58088 66.7318 6.15929 67.0522 5.28238L67.8701 2.49146Z" fill="white"/>
<path fill-rule="evenodd" clip-rule="evenodd" d="M44.7823 6.59775H47.0673C49.0151 6.59775 48.5766 9.02611 47.5901 11.3954C46.7469 13.4865 45.1786 15.3331 43.3742 15.3331H39.5293C38.0116 15.3331 37.3117 15.7547 36.9998 16.6232L36.0723 19.4141H38.8716H41.6035C44.0235 19.4141 46.0049 19.2117 48.349 17.1291C50.7436 14.9115 53.6357 9.23691 53.1467 5.86418C52.7588 3.33464 51.3676 2.49146 47.9949 2.49146H41.8481L38.2645 12.9975H40.5411C41.8987 12.9975 42.5732 12.9975 43.2983 11.075L44.7823 6.59775Z" fill="white"/>
<path fill-rule="evenodd" clip-rule="evenodd" d="M64.2363 19.4141H68.5366L70.4 14.1021L72.3393 12.4663L73.857 17.2809C74.3292 18.7649 74.8183 19.4141 75.8807 19.4141H79.1944L75.771 9.9789L84.0005 2.49146H78.6885L73.6884 7.82879C73.1066 8.45275 72.5164 9.05984 71.9261 9.78497H71.8755L74.3545 2.49146H70.0374L64.2363 19.4141Z" fill="white"/>
<path fill-rule="evenodd" clip-rule="evenodd" d="M26.5271 26.0164L24.9082 32.062H25.8526L26.603 29.1952C26.7716 28.5375 26.9571 27.7281 27.092 27.0619H27.1342C27.1342 27.6016 27.2944 28.4448 27.3872 29.0266L27.8425 32.003H28.6435L30.3804 28.9422C30.743 28.2677 31.2236 27.4329 31.367 27.0535H31.426C31.3164 27.7112 31.2068 28.5038 31.1056 29.153L30.7177 32.0451H31.6874L32.4547 25.9995H31.1562L29.6637 28.6977C29.2337 29.4397 28.7784 30.2998 28.576 30.7213C28.5254 30.2576 28.4158 29.5493 28.3484 29.0771L27.8087 26.0164H26.5271ZM38.3822 32.062C38.3648 31.1225 38.4496 30.1838 38.6352 29.2626L39.2339 26.1007C38.7085 25.944 38.1632 25.8645 37.6149 25.8646C37.052 25.8644 36.4946 25.977 35.9759 26.1957C35.4571 26.4144 34.9874 26.7348 34.5944 27.1379C34.2015 27.5411 33.8932 28.0189 33.6879 28.5431C33.4826 29.0673 33.3844 29.6273 33.399 30.1901C33.3682 30.438 33.39 30.6896 33.4628 30.9285C33.5356 31.1674 33.6579 31.3882 33.8218 31.5767C33.9856 31.7652 34.1873 31.9171 34.4138 32.0225C34.6402 32.1279 34.8863 32.1845 35.136 32.1885C35.648 32.1645 36.1421 31.9923 36.5582 31.693C36.9742 31.3936 37.2945 30.98 37.48 30.5021V30.5021C37.4085 31.0223 37.3635 31.5457 37.3451 32.0704L38.3822 32.062ZM37.733 28.6303C37.4379 30.2239 36.4092 31.3453 35.566 31.3453C34.7228 31.3453 34.5289 30.6876 34.5289 30.0131C34.5289 28.3267 35.819 26.6994 37.3789 26.6994C37.6175 26.6976 37.8555 26.7259 38.0871 26.7837L37.733 28.6303ZM40.3974 34.5325L40.8865 31.9187C41.2893 32.1269 41.7407 32.223 42.1934 32.1969C44.2086 32.1969 45.7348 30.1817 45.7348 28.0653C45.7348 26.9523 45.1783 25.8731 43.8713 25.8731C43.4333 25.8957 43.0071 26.0231 42.6286 26.2447C42.25 26.4662 41.9302 26.7754 41.6959 27.1463L41.873 26.0164H40.9202C40.8359 26.6235 40.7094 27.4498 40.5829 28.1665L39.3772 34.5325H40.3974ZM41.3755 29.3638C41.6875 27.6775 42.7078 26.7331 43.5172 26.7331C44.3267 26.7331 44.6808 27.5004 44.6808 28.1328C44.6808 29.7264 43.5594 31.3706 42.2187 31.3706C41.8115 31.394 41.4081 31.2813 41.072 31.0502L41.3755 29.3638ZM47.6572 25.9911L46.5274 32.062H47.5392L48.0535 29.3385H48.2137C48.9642 29.3385 49.3099 29.6336 49.664 30.5864C49.8664 31.1429 50.0013 31.7247 50.1615 32.062H51.1733C50.9711 31.5461 50.7966 31.0198 50.6505 30.4853C50.347 29.524 49.976 28.9507 49.3099 28.7989L52.261 26.0333H51.0047L48.3908 28.7061H48.1547L48.6691 26.0333L47.6572 25.9911ZM56.401 30.9069L56.5528 31.6826C55.9373 32.0081 55.2507 32.1761 54.5545 32.1716C54.2353 32.1911 53.9158 32.1403 53.6185 32.0228C53.3212 31.9053 53.0533 31.7239 52.8337 31.4915C52.6142 31.2591 52.4483 30.9813 52.3479 30.6777C52.2475 30.3742 52.2149 30.0523 52.2526 29.7348C52.2526 27.9136 53.6017 25.8478 55.5494 25.8478C55.7707 25.8191 55.9955 25.8378 56.2091 25.9025C56.4226 25.9672 56.62 26.0765 56.7881 26.2231C56.9563 26.3697 57.0914 26.5504 57.1846 26.7532C57.2777 26.9559 57.3268 27.1761 57.3285 27.3992C57.3285 28.9844 55.541 29.4144 53.3065 29.3723C53.2571 29.7585 53.2975 30.1509 53.4246 30.519C53.5343 30.7821 53.723 31.0046 53.9647 31.1556C54.2064 31.3067 54.4891 31.3789 54.7737 31.3622C55.3438 31.3587 55.9036 31.2107 56.401 30.9321V30.9069ZM56.3251 27.4329C56.3251 26.9439 55.9541 26.6741 55.3976 26.6741C54.4111 26.6741 53.7113 27.6353 53.4246 28.5797C55.0519 28.5797 56.3251 28.3857 56.3251 27.4414V27.4329ZM58.8547 32.0367L59.4196 29.0013C59.6557 27.7112 60.5916 26.7078 61.3505 26.7078C62.1094 26.7078 62.2527 27.239 62.2527 27.7449C62.2517 27.9941 62.2263 28.2427 62.1768 28.4869L61.5023 32.0367H62.5478L63.138 28.9338C63.391 27.5847 64.2763 26.7078 65.0268 26.7078C65.7772 26.7078 65.9205 27.1463 65.9205 27.7871C65.9193 28.0507 65.8911 28.3134 65.8362 28.5712L65.187 32.062H66.1988L66.8733 28.4869C66.9313 28.147 66.9623 27.803 66.9661 27.4582C66.9877 27.2555 66.9659 27.0505 66.902 26.8569C66.8381 26.6632 66.7336 26.4855 66.5955 26.3355C66.4575 26.1854 66.289 26.0666 66.1014 25.9868C65.9137 25.9071 65.7112 25.8683 65.5074 25.8731C65.051 25.8847 64.6056 26.0153 64.2152 26.2519C63.8248 26.4885 63.5029 26.823 63.2814 27.2221C63.2866 27.0385 63.2532 26.8558 63.1835 26.6859C63.1137 26.5159 63.0092 26.3624 62.8765 26.2353C62.7439 26.1082 62.5861 26.0103 62.4133 25.9479C62.2405 25.8855 62.0565 25.86 61.8733 25.8731C61.4409 25.8908 61.0199 26.0166 60.6487 26.239C60.2775 26.4614 59.968 26.7733 59.7485 27.1463V27.1463L59.9087 26.0164H58.939C58.8715 26.5139 58.7872 27.0957 58.6607 27.7702L57.8176 32.062L58.8547 32.0367Z" fill="white"/>
<path fill-rule="evenodd" clip-rule="evenodd" d="M7.10229 8.09938C8.08009 8.34615 9.07717 8.48708 10.0795 8.5202C11.8266 8.5855 13.7373 8.5202 16.0274 8.5202H16.8323C17.022 8.5202 17.0744 8.75963 16.865 8.82493L16.1583 9.04259C11.8659 10.4937 8.59418 12.2495 6.22548 16.5666C6.12733 16.7334 5.97684 16.6391 6.00301 16.436C6.14957 14.549 6.59246 12.7049 7.31168 10.9871C6.84056 10.2615 6.97143 9.42714 6.48067 8.22272C6.44796 8.08487 6.4087 7.94701 6.38252 7.89622C6.31055 7.68581 6.42178 7.606 6.57228 7.67856C6.93217 7.85269 6.66389 7.99054 7.10884 8.09938H7.10229Z" fill="white"/>
<path fill-rule="evenodd" clip-rule="evenodd" d="M7.32155 8.13907C8.23582 8.38478 9.16813 8.52511 10.1054 8.55808C11.5615 8.61588 13.1645 8.55808 15 8.55808C11.4024 9.92347 8.50238 11.8668 6.4344 15.6523C6.59873 14.0398 6.98737 12.4702 7.58464 11.0071C7.48674 10.8337 7.37661 10.6604 7.26649 10.4725L7.32155 10.2847C6.81703 9.4909 6.37469 8.64458 6 7.75618C6 7.65504 6.08566 7.62615 6.18967 7.67672C6.5539 7.87224 6.93285 8.02703 7.32155 8.13907V8.13907Z" fill="#D9DADB"/>
<path fill-rule="evenodd" clip-rule="evenodd" d="M6.40862 7.1263C7.35471 7.36339 8.31943 7.49905 9.28928 7.53138C10.9897 7.59424 12.8425 7.53138 15.0633 7.53138H15.8374C16.0214 7.53138 16.0721 7.76186 15.8691 7.82472L15.1902 8.04123C10.9897 9.41712 7.67763 11.3937 5.39976 15.5423C5.30459 15.7099 5.1523 15.682 5.18403 15.4864C5.40166 13.5571 5.87851 11.6741 6.59898 9.89903C6.02816 9.05908 5.53902 8.15549 5.13961 7.20312C5.08885 7.07042 5.04444 6.97963 5.01906 6.9028C4.94926 6.69327 5.08251 6.5955 5.23479 6.68629C5.61355 6.87066 6.00635 7.0179 6.40862 7.1263V7.1263Z" fill="white"/>
</svg>
