<svg width="64" height="15" viewBox="0 0 64 15" fill="none" xmlns="http://www.w3.org/2000/svg">
<path fill-rule="evenodd" clip-rule="evenodd" d="M0 2.75078H5.81006V14.3136H7.96679V2.75078H13.6888V0.652344H0V2.75078Z" fill="white"/>
<path fill-rule="evenodd" clip-rule="evenodd" d="M57.4381 10.3738V0.695312H55.2812V10.4166C55.2812 12.5579 57.086 14.3566 59.3308 14.3566H63.2482V12.2581H59.3308C58.2744 12.2581 57.4381 11.4016 57.4381 10.3738Z" fill="white"/>
<path fill-rule="evenodd" clip-rule="evenodd" d="M49.563 10.3738V0.695312H47.4062V10.4166C47.4062 12.5579 49.2109 14.3566 51.4557 14.3566H53.6565V12.2581H51.4557C50.3993 12.2581 49.563 11.4016 49.563 10.3738Z" fill="white"/>
<path fill-rule="evenodd" clip-rule="evenodd" d="M28.3458 0.823788C27.7736 0.566837 27.0694 0.609662 26.5852 1.03791L24.5606 2.66527C23.2401 3.69308 21.3474 3.69308 20.0709 2.66527L18.0463 1.03791C17.5621 0.652488 16.9019 0.566837 16.2857 0.823788C15.7135 1.08074 15.3613 1.63747 15.3613 2.27985V14.3566H17.5181V3.222L18.7945 4.20698C19.8069 5.02066 21.0833 5.44891 22.4038 5.44891C23.7242 5.44891 25.0006 5.02066 26.013 4.20698L27.2895 3.222V14.3137H29.4462V2.27985C29.2701 1.59464 28.962 1.08074 28.3458 0.823788Z" fill="white"/>
<path fill-rule="evenodd" clip-rule="evenodd" d="M38.2926 0.652344C37.2803 0.652344 36.4879 1.20907 36.0478 2.1084L30.5898 14.3564H32.9227L34.9474 9.85976H41.6378L43.6626 14.3564H45.9955L40.5374 2.1084C40.0972 1.16625 39.261 0.652344 38.2926 0.652344ZM35.8718 7.67568L38.0285 2.87925C38.0725 2.70795 38.2046 2.70795 38.2926 2.70795C38.4247 2.70795 38.5127 2.75078 38.5567 2.87925L40.7135 7.67568H35.8718Z" fill="white"/>
</svg>
