<svg width="156" height="18" viewBox="0 0 156 18" fill="none" xmlns="http://www.w3.org/2000/svg">
<path fill-rule="evenodd" clip-rule="evenodd" d="M4.75239 17.4075L0 0.326391H3.13098L6.76516 13.4364L10.6789 0.326391H13.5862L17.5 13.4908L21.1341 0.326391H24.2651L19.5127 17.4075H15.9345L12.1326 4.67827L8.33066 17.4075H4.75239ZM26.3897 0.326391H29.353V17.3531H26.3897V0.326391ZM35.6709 14.6876H42.8833V17.3531H32.7635V0.326391H35.6709V14.6876V14.6876ZM51.9408 0.38079C54.345 0.38079 56.4136 1.19677 57.9791 2.82872C59.6005 4.46067 60.3833 6.47342 60.3833 8.86695C60.3833 11.2605 59.5446 13.2732 57.9791 14.9052C56.4136 16.5371 54.345 17.3531 51.9408 17.3531H45.0079V0.326391L51.9408 0.38079ZM51.9408 14.742C53.6181 14.742 54.96 14.198 56.0223 13.11C57.0846 12.0221 57.5878 10.6077 57.5878 8.92135C57.5878 7.235 57.0846 5.82064 56.0223 4.73267C54.96 3.6447 53.6181 3.10071 51.9408 3.10071H47.9152V14.7964H51.9408V14.742ZM76.0382 12.5116C76.0382 13.926 75.535 15.0684 74.4727 15.9931C73.4104 16.9179 72.2363 17.4075 70.7267 17.4075H63.1788V0.326391H70.2235C71.6772 0.326391 72.9072 0.815977 73.9136 1.68635C74.92 2.61113 75.4232 3.6991 75.4232 5.05906C75.4232 6.52782 74.8082 7.67018 73.6341 8.54056C75.0877 9.30214 76.0382 10.7709 76.0382 12.5116ZM66.0302 2.99192V7.45259H70.1676C71.4535 7.45259 72.404 6.47342 72.404 5.22225C72.404 3.97109 71.4535 2.99192 70.1676 2.99192H66.0302V2.99192ZM70.7267 14.742C72.0686 14.742 73.1309 13.7084 73.1309 12.3485C73.1309 10.9885 72.0686 9.95492 70.7267 9.95492H66.0302V14.7964L70.7267 14.742ZM81.6852 14.742H89.5126V17.4075H78.7778V0.326391H89.4008V2.99192H81.6852V7.39819H88.7858V10.0637H81.6852V14.742ZM102.204 17.4075L98.4583 11.2061H95.0478V17.4075H92.1404V0.326391H99.241C100.807 0.326391 102.204 0.870376 103.267 1.95834C104.385 2.99192 104.944 4.29748 104.944 5.82064C104.944 7.99657 103.546 9.95492 101.422 10.7709L105.447 17.4075H102.204ZM95.0478 2.99192V8.70375H99.1851C100.751 8.70375 101.981 7.45259 101.981 5.87503C101.981 4.29748 100.751 3.04631 99.1851 3.04631H95.0478V2.99192ZM117.691 17.4075L113.945 11.2061H110.535V17.4075H107.628V0.326391H114.728C116.35 0.326391 117.691 0.870376 118.754 1.95834C119.872 2.99192 120.431 4.29748 120.431 5.82064C120.431 7.99657 119.033 9.95492 116.909 10.7709L120.934 17.4075H117.691ZM110.535 2.99192V8.70375H114.672C116.238 8.70375 117.468 7.45259 117.468 5.87503C117.468 4.29748 116.238 3.04631 114.672 3.04631H110.535V2.99192ZM123.059 0.326391H125.966V17.4075H123.059V0.326391ZM132.284 14.742H140.112V17.4075H129.377V0.326391H140V2.99192H132.284V7.39819H139.385V10.0637H132.284V14.742ZM142.124 13.4908L144.64 12.0765C145.367 13.9804 146.821 14.9596 149.001 14.9596C151.182 14.9596 152.3 14.0348 152.3 12.7292C152.3 12.0221 152.02 11.5325 151.405 11.1517C150.846 10.7709 149.784 10.3901 148.275 9.95492C146.597 9.46533 145.759 9.13894 144.584 8.37736C143.466 7.61579 142.851 6.47342 142.851 4.95026C142.851 3.4271 143.41 2.23034 144.528 1.35996C145.647 0.435188 146.989 0 148.554 0C151.405 0 153.586 1.41436 154.704 3.75349L152.244 5.11346C151.517 3.5359 150.287 2.71992 148.554 2.71992C146.877 2.71992 145.759 3.5359 145.759 4.84146C145.759 6.09263 146.597 6.69101 149.337 7.50699C150.008 7.72458 150.511 7.88778 150.79 7.99657C151.126 8.10537 151.517 8.26857 152.076 8.48616C152.636 8.70376 153.083 8.97575 153.362 9.19334C154.313 9.90052 155.319 11.0429 155.151 12.6748C155.151 14.198 154.592 15.4492 153.418 16.3739C152.3 17.2987 150.79 17.7339 148.89 17.7339C145.535 17.6795 143.019 16.1019 142.124 13.4908Z" fill="white"/>
</svg>
