<svg width="128" height="25" viewBox="0 0 128 25" fill="none" xmlns="http://www.w3.org/2000/svg">
<path fill-rule="evenodd" clip-rule="evenodd" d="M6.00411 12.1778L2.5402 19.7272H0L3.78719 11.6386C1.98595 10.7399 0.78513 9.16708 0.78513 6.20126C0.78513 2.06709 3.46391 0 6.69689 0H9.9761V19.7272H7.8053V12.1778H6.00411ZM7.85153 1.79747H6.69689C4.94184 1.79747 3.23298 2.92088 3.23298 6.20126C3.23298 9.39176 4.80329 10.3804 6.69689 10.3804H7.85153V1.79747Z" fill="white"/>
<path fill-rule="evenodd" clip-rule="evenodd" d="M20.5536 5.84186V19.7722H18.3829V13.526H15.1037V19.7722H12.8867V5.84186H15.1037V11.7735H18.3829V5.84186H20.5536ZM31.9614 22.5134H29.9754V19.7722H23.8328V22.5134H21.8468V18.0197H22.7243C24.0175 15.0539 24.1561 10.74 24.1561 7.05515V5.88679H30.8068V18.0197H31.9614V22.5134V22.5134ZM28.6361 7.59439H26.1421V7.86401C26.1421 10.7849 26.0035 15.0539 24.8026 18.0197H28.5898V7.59439H28.6361ZM38.0579 19.952C35.102 19.952 33.3009 17.6602 33.3009 13.3912C33.3009 8.89755 34.594 5.66211 37.596 5.66211C39.9977 5.66211 41.5218 7.41464 41.5218 12.133V13.3013H35.5639C35.5639 16.4469 36.4876 18.1096 38.2427 18.1096C39.4897 18.1096 40.5057 17.5703 41.06 17.1659L41.568 18.8285C40.6443 19.5026 39.4896 19.952 38.0579 19.952ZM35.6101 11.5488H39.2588C39.2588 9.16717 38.843 7.41464 37.596 7.41464C36.2567 7.41464 35.7487 9.03236 35.6101 11.5488ZM46.048 12.852V19.7722H43.8311V5.84186H46.048V12.2678L49.4658 5.84186H51.7289L48.1726 12.4026L52.237 19.7722H49.8352L46.048 12.852ZM52.514 12.807C52.514 8.44818 54.2691 5.66211 57.5944 5.66211C58.8876 5.66211 59.6266 5.97667 60.227 6.3811L59.9037 8.40325C59.3033 7.90894 58.472 7.41464 57.5483 7.41464C55.978 7.41464 54.8233 9.16717 54.8233 12.6722C54.8233 16.1323 55.6546 18.1545 57.4559 18.1545C58.5181 18.1545 59.3496 17.7501 59.8576 17.3007L60.3656 18.9184C59.5804 19.5475 58.7029 19.952 57.3635 19.952C54.3614 19.952 52.514 17.5703 52.514 12.807Z" fill="white"/>
<path fill-rule="evenodd" clip-rule="evenodd" d="M78.3766 19.7721H77.0373H78.3766V0V19.7721ZM68.4931 19.7721H67.2461V0V19.7721H68.4931Z" fill="white"/>
<path fill-rule="evenodd" clip-rule="evenodd" d="M78.3766 19.7721H77.0373V5.93164C77.0373 4.98797 77.0834 3.99936 77.1296 3.01076H77.0373C76.7601 4.13417 76.5754 4.8981 76.3445 5.75189L73.2962 16.7614H72.1878L69.1858 5.84177C68.9087 4.80822 68.6778 3.95443 68.4931 3.01076H68.4007C68.4469 3.95443 68.4931 4.94303 68.4931 5.93164V19.7721H67.2461V0H68.9087L72.3264 12.6272C72.465 13.1664 72.6497 14.155 72.742 14.919H72.8344C72.9268 14.155 73.1577 13.1215 73.2962 12.6272L76.7601 0H78.3305V19.7721H78.3766Z" fill="white"/>
<path fill-rule="evenodd" clip-rule="evenodd" d="M87.2441 17.8847C86.5513 19.1878 85.5353 20.0416 84.1035 20.0416C82.1637 20.0416 80.8242 18.5587 80.8242 15.9973C80.8242 13.0315 82.4869 11.4587 85.5814 11.4587H87.1517V9.75113C87.1517 7.63911 86.3204 6.69544 84.7501 6.69544C83.5492 6.69544 82.4407 7.23468 81.7479 8.22328L81.3784 6.96506C81.9327 6.24607 83.1335 5.57202 84.7501 5.57202C87.1056 5.57202 88.445 6.83025 88.445 9.61632V17.2106C88.445 18.1543 88.5835 19.2328 88.7682 19.772H87.5675C87.4751 19.4125 87.3364 18.8733 87.2441 17.8847ZM87.1517 16.2669V12.4473H85.6275C83.272 12.4473 82.1175 13.4809 82.1175 15.9075C82.1175 17.8847 82.995 19.0081 84.3805 19.0081C85.7199 19.0081 86.6437 17.7499 87.1517 16.2669Z" fill="white"/>
<path fill-rule="evenodd" clip-rule="evenodd" d="M92.8785 18.7834V24.041H91.5391V5.84164H92.6937L92.7861 8.13341C93.4327 6.78531 94.4488 5.57202 96.0653 5.57202C98.467 5.57202 99.8525 8.35809 99.8525 12.4024C99.8525 17.5252 98.0975 20.0416 95.4188 20.0416C94.3565 19.9967 93.4328 19.5024 92.8785 18.7834ZM98.5593 12.4923C98.5593 8.8524 97.5433 6.69544 95.8806 6.69544C94.5874 6.69544 93.5251 8.04354 92.8785 9.52645V17.3005C93.4328 18.4239 94.2641 18.9631 95.5111 18.9631C97.3585 19.0081 98.5593 16.8961 98.5593 12.4923Z" fill="white"/>
<path fill-rule="evenodd" clip-rule="evenodd" d="M103.781 19.7722H102.441V5.8418H103.781V12.4025L108.584 5.8418H109.877L105.166 12.3127L110.201 19.7722H108.723L103.781 12.5374V19.7722Z" fill="white"/>
<path fill-rule="evenodd" clip-rule="evenodd" d="M115.281 18.9182C117.175 18.9182 118.191 17.4353 118.191 17.4353L118.606 18.4688C118.606 18.4688 117.544 20.0416 115.235 20.0416C112.186 20.0416 110.801 17.3454 110.801 12.8068C110.801 8.26822 112.556 5.57202 114.958 5.57202C117.405 5.57202 119.022 8.08847 118.56 13.0315H112.094C112.186 16.8511 113.203 18.9182 115.281 18.9182ZM112.14 11.998H117.359C117.59 8.31316 116.435 6.6505 115.004 6.6505C113.48 6.6505 112.279 8.53784 112.14 11.998Z" fill="white"/>
<path fill-rule="evenodd" clip-rule="evenodd" d="M124.47 19.7722H123.131H124.47ZM127.749 6.92028V5.8418V6.92028Z" fill="white"/>
<path fill-rule="evenodd" clip-rule="evenodd" d="M124.471 19.7722H123.132V6.92028H119.807V5.8418H127.751V6.92028H124.471V19.7722Z" fill="white"/>
</svg>
