<svg width="1440" height="135" viewBox="0 0 1440 135" fill="none" xmlns="http://www.w3.org/2000/svg">
<path d="M0 135H784.204H1391.47H1681V50.4287C1557.81 53.16 1493.11 24.6551 1398.29 2.90393C1316.96 -15.7683 1274.58 61.8009 1201.74 59.5662C1080.92 55.8913 997.131 27.585 910.104 27.585C828.243 27.585 653.226 58.275 571.452 58.275C492.568 58.275 376.649 18.5965 297.765 17.5537C160.833 15.7659 124.849 57.2322 0.0875521 59.2186L0 135Z" fill="#F5FAFF"/>
<path d="M1440 131H656.263H49.3625H-240V35.9208C-240 35.9208 -109.012 22.9597 -20.9875 25.2776C66.6 27.5481 160.925 65.2487 233.9 66.0528C320.875 67.0462 446.7 37.7183 533.762 37.7183C615.575 37.7183 783.487 70.7358 865.3 70.7358C944.137 70.7358 1069.17 27.7373 1147.92 26.744C1284.69 24.9937 1315.31 56.876 1440 58.7682V131Z" fill="#DBEDFC"/>
<path d="M1682.5 135H768.225H248.025H-240V49.7742C-240 49.7742 112.275 36.801 187.725 39.121C262.875 41.3464 335.4 68.5712 397.875 69.3761C472.425 70.3704 575.025 54.9293 661.125 44.8027C747.225 34.6762 881.325 73.7676 937.5 76.0876C993.675 78.4076 1100.02 70.5658 1189.57 44.8027C1279.12 19.0396 1575.62 60.8062 1682.5 62.7001V135Z" fill="url(#paint0_linear_2966_50324)"/>
<defs>
<linearGradient id="paint0_linear_2966_50324" x1="720" y1="20.9039" x2="720" y2="154.389" gradientUnits="userSpaceOnUse">
<stop stop-color="#46A4E0"/>
<stop offset="1" stop-color="#4197D3"/>
</linearGradient>
</defs>
</svg>
